<svg width="24.421mm" height="10.451mm" version="1.1" viewBox="0 0 24.421 10.451" xmlns="http://www.w3.org/2000/svg">
 <g transform="translate(-89.633 -87.492)">
  <path id="AT" name="Austria" fill="#1fd495" stroke-width=".265" stroke='none' d="m113.23 89.106-0.23812 0.635 0.0265 0.21167 0.42333 0.76729 0.60854 0.76729-0.15875 0.18521-0.15875 0.50271 0.18521 0.52917-1.0319 0.07937-0.66146-0.23812-0.34396 0.37042 0.68792 0.18521 0.13229 0.29104-0.13229 0.37042-0.58209 0.3175 0.10584 0.39688-0.1323 0.18521 0.29105 0.42333-0.0794 0.47625-0.66146 0.13229-0.47625 0.44979-0.34396 0.23812-0.0265 0.50271-0.635-0.13229-0.42334 0.05292-0.60854 0.29104-0.74083-0.05292-0.68792 0.05292-0.50271 0.18521-0.26458 0.34396-0.79375 0.3175-1.3229-0.18521-1.3229-0.23812-0.68792-0.13229-1.0583-0.07938-2.2754-0.39688-0.29104-0.13229-0.82021-0.92604v-0.60854l-1.2435 0.39688-0.82021-0.05292-0.89958 0.07938-0.37042 0.15875-0.3175 0.58208-0.29104 0.10583-0.55562-0.10583-0.23812-0.21167-0.79375-0.07937-0.13229-0.39688-0.21167-0.07937-0.52917 0.50271-0.60854-0.10583-0.39688-0.21167-0.10583-0.26458-0.87312-0.21167 0.07937-0.21167-0.29104-0.66146 0.26458-0.79375-0.23812-0.18521 0.44979-0.13229 0.18521-0.13229 0.92604 0.42333 0.23812 0.37042 0.3175 0.07937-0.02646 0.34396 0.42333-0.13229 0.26458-0.42333 0.05292-0.50271 0.74083-0.02646 0.71438 0.10583 0.37042 0.50271 1.0054-0.13229 0.29104-0.23812 1.0319-0.39688 1.5081-0.13229 0.02646-0.37042 0.52917 0.07937 0.39688 0.21167 0.66146-0.13229 0.29104 0.13229 0.0529 0.29104 0.3175 0.23812 0.44979 0.10583 0.0794-0.39688-0.0794-0.50271-0.44979-0.07937 0.15875-0.34396-0.0265-0.34396-0.66146-0.74083 0.15875-0.34396 0.82021-0.47625 0.76729-0.21167 0.26459-0.26458 0.18521-0.76729 0.60854 0.23812 0.34396-0.23812 0.0529-0.74083 0.58209 0.3175 0.21166 0.34396 1.0319 0.10583 0.37041-0.18521 0.66146 0.10583 0.0265-0.29104 0.34396-0.42333h0.3175l0.0794-0.84667 0.3175-0.05292 0.42334 0.21167 0.37041-0.10583 1.27 0.44979 0.39688-0.02646 0.79375 0.44979 1.0054 0.05292 0.3175-0.23812 1.3494 0.39688z"/>
 </g>
</svg>
