<svg width="28.972mm" height="19.288mm" version="1.1" viewBox="0 0 28.972 19.288" xmlns="http://www.w3.org/2000/svg">
 <g transform="translate(-113.18 -80.997)">
  <path id="BY" name="Belarus" fill="#1fd495" stroke-width=".265" stroke='none' d="m125.99 80.997 0.47625 0.34396 0.3175-0.10583 0.50271-0.02646 0.82021 0.58208 0.42333-0.23812 0.39688-0.07937 0.9525 0.3175 0.0529 0.60854 0.4498 0.39688 0.55562-0.34396 0.71438-0.29104h0.89958l0.71437 0.23812 0.635 0.47625 0.92605 0.37042 0.10583 0.66146-0.15875 0.47625 0.55562 0.55562 0.1323 0.34396-0.34396 0.52917v0.52917l1.0848 0.52917 0.13229 0.13229-0.13229 0.47625 0.37042 0.15875 0.47625 0.635 0.39687 0.37042 1.2965 0.55562 0.18521 0.21167-0.10584 0.74083 1.4023 0.13229 0.84666 0.34396v0.29104l0.18521 0.29104 0.74083 0.37042 0.15875 0.44979-0.68791 0.26458-0.0794 0.23812-0.79375 0.47625-0.92604-0.05292-0.635-0.39688-0.76729 0.02646-0.37042 0.71438 1.0319 0.87312 0.15875 0.26458-0.0529 0.39688 0.26458 0.39688 0.1323 0.87312 0.42333 0.37042 0.34396 0.47625-1.3229-0.02646-0.37042 0.21167-0.44979-0.10583-0.29104 0.13229-0.58208 0.60854-0.21167 0.3175-0.26458 0.87312 0.47625 0.9525-0.21167 0.37042-0.71437-0.23812-0.1323-0.3175-0.52916-0.29104-1.8785 0.15875-0.60855 0.21167-0.15875-0.13229-0.66145-0.79375-1.0054 0.42333-0.15875 0.29104-0.26458-0.07938-0.21167-0.34396-1.3494-0.26458-0.5027 0.18521-0.50271-0.13229-0.3175 0.44979-0.21167-0.37042-0.29104-0.10583-0.79375 0.02646-0.26458-0.07937-0.47625-0.55562h-0.60855l-1.614-0.23812-1.7198-0.39688-2.0638-0.10583-0.635 0.02646-0.60854 0.13229-1.561 0.13229-0.21167 0.37042-0.42333 0.42333-0.50271 0.3175-0.29104-0.13229-0.50271-0.07937-0.29104 0.13229 0.0265 0.37042-0.26458-0.42333-0.0265-0.34396 0.21166-0.39688-0.10583-0.29104 0.0529-0.635-0.21167-0.26458-0.47625-0.26458-0.87312-0.34396v-0.3175l0.52916-0.71438 0.21167-0.13229 1.0583-0.44979 0.15875-0.42333-0.23812-1.0319-0.44979-0.9525-0.7673-1.2965-0.55562-1.3494 0.76729 0.10583 0.42333-0.07937 0.97896-0.07937 0.42334 0.23812 0.87312-0.34396 0.47625 0.02646 0.21167-0.68792 0.52916 0.05292 0.37042-0.3175 0.55563-0.13229 0.26458-0.18521 0.44979 0.60854 0.52917-0.05292v-0.26458l-0.23813-0.29104-0.50271-0.13229 0.1323-0.52917 0.26458-0.39688-0.10583-0.60854 0.29104-0.79375 0.68791-0.15875 0.21167-0.15875 0.26458-0.52917 0.9525 0.02646 0.10584-0.29104 0.34396-0.26458-1.0319-0.26458 0.18521-0.82021v-0.47625l0.68792-0.15875 0.3175-0.39688 0.29104-0.07937 0.79375 0.10583 0.82021 0.02646 0.10583-0.44979 0.66146-0.635 0.37041-0.21167z"/>
 </g>
</svg>
