<svg width="21.749mm" height="9.8954mm" version="1.1" viewBox="0 0 21.749 9.8954" xmlns="http://www.w3.org/2000/svg">
  <title>Czech Republic</title><desc>European country</desc>
 <g transform="translate(-80.204 -50.806)">
  <path id="CZ" name="Czech Republic" fill="#1fd495" stroke-width=".265" stroke='none' d="m88.645 51.52 0.55562-0.10583-0.02646-0.50271 0.87312 0.21167 0.07937 0.29104 0.26458 0.29104 1.2171 0.29104 0.71438 0.29104 0.21167 0.23812 0.84667-0.18521 0.47625 0.3175-0.18521 0.29104-0.42333 0.3175 0.42333 0.23812 0.52917 0.47625 0.39688 0.50271 0.26458 0.10583 0.92604-0.66146-0.44979-0.635h0.34396l0.58208 0.15875 0.87312 0.50271 0.9525-0.18521v0.42333l-0.37042 0.13229 0.71438 0.60854 0.26458 0.15875 0.47625-0.26458 0.92604 0.47625 0.13229-0.05292 0.71438 0.21167 0.13229 0.47625 0.74083 0.58208 0.13229 0.42333-0.74083 0.07937-0.52917 0.39688-0.15875 0.21167-0.60854 0.3175-0.18521 0.79375-0.42333 0.21167-0.55562 0.50271-0.39688 0.18521-0.44979 0.05292-0.9525-0.13229-0.37042 0.3175-0.29104 0.74083-0.26458-0.42333-1.3494-0.39688-0.3175 0.23812-1.0054-0.05292-0.79375-0.44979-0.39688 0.02646-1.27-0.44979-0.37042 0.10583-0.42333-0.21167-0.3175 0.05292-0.07937 0.84667h-0.3175l-0.34396 0.42333-0.02646 0.29104-0.66146-0.10583-0.37042 0.18521-1.0319-0.10583-0.21167-0.34396-0.58208-0.3175-0.15875-0.18521-0.76729-0.58208h-0.34396l-0.34396-0.42333-0.66146-0.39688-0.76729-0.68792h-0.34396l-0.60854-0.52917-0.47625-0.71438-0.37042-0.39688 0.3175-0.44979-0.15875-0.42333-0.60854-0.34396-0.66146-0.89958 0.13229-0.18521 0.50271 0.52917 0.50271-0.68792 0.29104-0.15875 0.68792-0.15875 0.55562 0.10583 0.21167-0.34396 0.52917-0.07937 0.15875-0.26458 0.42333-0.18521 0.29104 0.02646 0.15875-0.3175 1.1642-0.26458 0.92604-0.39688 0.50271-0.15875-0.39688-0.39688 0.21167-0.15875 0.58208 0.10583 0.39688 0.39688v0.23812l0.37042 0.15875z"/>
 </g>
</svg>
