<svg width="28.733mm" height="30.48mm" version="1.1" viewBox="0 0 28.733 30.48" xmlns="http://www.w3.org/2000/svg">
 <g transform="translate(-94.556 1.6129)">
  <path id="DE" name="Germany" fill="#1fd495" stroke-width=".265" stroke='none' d="m119.85 2.4352-0.89958-0.026458-0.0529-0.44979-0.29104-0.26458-0.0265-0.26458 1.2435 0.68792zm-9.2075-2.1431h-0.47625l-0.37042-0.18521 0.21167-0.26458 0.44979 0.10583zm7.4877 0.13229-0.34396 0.18521h-0.34396l-0.34396 0.34396-0.55562-0.29104-0.13229-0.29104 0.0265-0.58208 0.15875-0.37042 0.52916-0.23812 0.23813 0.3175 0.44979 0.15875-0.13229 0.44979zm-12.33-1.7463 0.47625 0.18521 0.42333 0.42333 0.0265 0.37042-0.44979 0.42333 0.84666-0.079375 0.21167 0.3175 0.44979-0.10583 1.1906 0.47625 0.84666-0.23812 0.18521 0.37042-0.15875 0.39688-0.58208 0.42333 0.37041 0.3175 0.55563-0.052917 0.9525 0.23812 0.87312-0.66146 0.29105-0.13229 0.9525-0.079375 1.3494-1.1906 1.4023 0.23812 0.39688 0.50271 0.97896 0.55562 0.84666-0.052917 0.34396 0.52917 0.21167 0.66146 0.50271 0.34396 0.74083 0.13229 0.18521 0.68792 0.47625 1.0848-0.0794 0.71438-0.50271 0.47625-0.1852 0.42333 0.42333 0.37042 0.87312 0.55562 0.37042 0.44979-0.15875 0.68792 0.52917 0.60854 0.21166 0.50271-0.1852 0.68792-0.21167 0.29104 0.50271 0.82021v0.42333l0.58208 0.23812 0.42333 0.84667-0.10583 0.60854-0.42333 0.9525-0.23813 0.18521-0.37041-0.15875v-0.23812l-0.39688-0.39688-0.58208-0.10583-0.21167 0.15875 0.39688 0.39688-0.50271 0.15875-0.92604 0.39688-1.1642 0.26458-0.15875 0.3175-0.29104-0.02646-0.42334 0.18521-0.15875 0.26458-0.52916 0.07937-0.21167 0.34396-0.55562-0.10583-0.68792 0.15875-0.29104 0.15875-0.50271 0.68792-0.50271-0.52917-0.13229 0.18521 0.66146 0.89958 0.60854 0.34396 0.15875 0.42333-0.3175 0.44979 0.37042 0.39688 0.47625 0.71438 0.60854 0.52917h0.34396l0.76729 0.68792 0.66146 0.39688 0.34395 0.42333h0.34396l0.76729 0.58208 0.15875 0.18521-0.0529 0.74083-0.34396 0.23812-0.60854-0.23812-0.18521 0.76729-0.26458 0.26458-0.7673 0.21167-0.8202 0.47625-0.15875 0.34396 0.66145 0.74083 0.0265 0.34396-0.15875 0.34396 0.44979 0.07938 0.0794 0.50271-0.0794 0.39688-0.44979-0.10583-0.3175-0.23812-0.0529-0.29104-0.29105-0.13229-0.66145 0.13229-0.39688-0.21167-0.52917-0.07937-0.0264 0.37042-1.5081 0.13229-1.0319 0.39688-0.29105 0.23812-1.0054 0.13229-0.37042-0.50271-0.71437-0.10583-0.74084 0.02646-0.0529 0.50271-0.26459 0.42333-0.42333 0.13229 0.0265-0.34396-0.3175-0.07938-0.23813-0.37042-0.92604-0.42333-0.18521 0.13229-0.58208-0.3175-1.3494-0.60854 0.26459 0.42333-0.97896 0.05292-0.29104-0.23812-0.21167 0.05292-0.37042-0.26458h-0.34395l-0.34396 0.3175 0.0529 0.39687-0.68791-0.05292-0.87313 0.15875-0.74083-0.02646-0.26458-0.07938-0.29105-0.34396v-0.39688l0.15875-0.52917-0.0529-0.635 0.0794-0.39688 0.26459-0.47625 0.37041-1.4552 0.92604-1.0054-0.0264-0.34396-0.42334-0.15875-1.27-0.21167-0.52916-0.37042-0.79375 0.15875-0.55562-0.02646-0.07937-0.23812-0.37042-0.10583-0.47625 0.18521-0.92604-1.1377-0.37042-0.02646 0.15875-0.79375 0.23812-0.23812v-0.37042l-0.74083-0.29104-0.39688-0.42333-0.07937-0.58208 0.15875-0.44979 0.60854-0.34396-0.10583-0.52917-0.44979-0.18521 0.10583-0.39688-0.79375-0.60854 0.15875-0.635-0.50271-0.3175 0.13229-0.21167 0.58208-0.42333-0.18521-0.3175 0.34396-0.74083v-0.3175l-0.82021-1.0848 0.18521-0.29104 0.47625-0.18521 0.60854 0.21167 1.1906-0.34396 0.18521-0.26458-0.26458-0.23812 0.07937-0.23812 0.68792-0.42333 0.15875-0.68792-0.21167-0.26458-0.68792-0.079375-0.18521-0.26458 0.15875-0.42333 0.82021 0.026458 0.29104-1.0054 0.18521-0.44979-0.02646-1.1377-0.44979-0.37042 0.13229-0.71438 0.29104-0.37042 0.23812-0.10583 1.0583-0.079375 1.1906 0.026458 0.5027 0.58208-0.15875 0.3175 0.42334 0.079375 0.23812-0.635 0.37042 0.21167 0.29104-0.026458-0.13229-0.44979 0.0529-0.42333 0.23812-0.37042 0.87313 0.15875 0.9525-0.079375 0.0264-0.15875-0.74083-0.13229-0.23812-0.29104-0.0529-1.0319-0.39688-0.21167-0.42333 0.079375v-0.39688l0.89958-0.29104v-0.26458l-0.89958-1.0054-0.0529-0.42333 0.71438 0.026458 1.3758 0.34396 0.82021-0.18521z"/>
 </g>
</svg>
