<svg width="21.643mm" height="12.092mm" version="1.1" viewBox="0 0 21.643 12.092" xmlns="http://www.w3.org/2000/svg">
 <g transform="translate(-117.81 -115.37)">
  <path id="DK" name="Denmark" fill="#1fd495" stroke-width=".265" stroke='none' d="m128 126.43 0.55563 0.26458 0.635 0.0794 0.10583 0.50271-0.92604 0.18521-1.3494-0.55563 0.0265-0.66146 0.60854-0.0529zm3.6248-0.29104-0.60854 0.0265-0.50271 0.26458-0.0794-0.3175 0.42333-0.26458 0.3175 0.0529zm-7.62 0.3175-0.3175 0.0529-0.44979-0.1323-0.15875-0.60854 0.71438 0.29104zm2.1167 0.52917-0.37042-0.39688 0.66146-0.76729 0.18521-0.0529zm13.256-1.0583-0.635-0.0529-0.635-0.26459 0.0265-0.52916 0.13229-0.23813 1.1906 0.60854zm-13.785-2.3019 0.60854 1.1377-0.0264 0.74083-0.47625 0.3175h-0.55563l-1.4288-0.44979-0.44979-0.76729-0.0265-0.60855 1.27-0.37041 0.68792 0.21166zm6.1648 0.0529-0.26458 0.15875-0.18521-0.23812 0.23813-0.23813zm-6.3235-0.74083h-0.23812v-0.79375l0.39687 0.42333zm5.9796 0 0.0264 0.39688-0.1852 0.1852-0.52917 0.18521-0.29104 0.47625 0.52916 0.3175 0.1323 0.39688-0.26459 0.18521-0.68791 0.1852v1.4817l-0.58209 0.15875-0.39687-0.55562-0.0265-0.23813-0.34396-0.82021-0.52917-0.10583-0.58208 0.0265-0.39687-0.47625 0.0264-0.55563-0.26458-0.52916-0.34396-0.15875 0.10584-0.37042 0.8202-0.0529 0.39688-0.50271v-0.23812l0.47625-0.0529 0.21167 0.18521 0.0265 0.68792 0.42334 0.13229 0.29104-0.76729-0.23813-0.29104 1.0319-0.58209 0.29104-0.0265 0.79375 0.23813-0.10583 0.55562zm-8.3608 3.7571-0.39687-0.10583-0.82021 0.18521-1.3758-0.34396-0.71438-0.0265-0.13229-0.55562-0.21167-0.37042 0.29104-0.0794-0.23812-1.0319-0.84667-0.34396-0.66145-0.37041 0.13229-1.4817-0.26459-0.60854 0.0265-1.8256 0.34396-0.0265 0.82021 0.21167 0.39687 0.23813 0.15875-0.50271 0.42334-0.42334 0.52916-0.21166 0.42334 0.34396 0.0794-1.1906-0.42333-0.13229-0.34396 0.10583-0.34396 0.50271-0.26458 0.635-0.50271 0.0529-0.39687 0.18521-0.635-0.37042 0.0264-0.37042 0.42334-0.50271 0.52916-0.5027h0.58209l0.42333-0.15875 1.0319 0.0264 0.74084-0.34395 0.74083-0.9525 0.39688-0.39688 0.87312-0.13229 0.79375-0.44979-0.21167 0.66146 0.3175 0.44979v0.79375l-0.23812 0.26458-0.37042 0.66146 0.0529 1.4817 0.66146 0.39687h1.0848l0.26458 0.29104-0.18521 0.58209-0.68791 0.37041h-0.23813l-0.37041-0.29104-0.29105 0.23813-0.3175 1.3494-0.52916-0.0265-0.3175 0.13229 0.37041 0.3175-0.34395 0.21167-0.89959 0.82021 0.29104 0.89958-0.0529 0.23813-0.39688 0.34396-0.15875 0.29104 0.60854 0.0794z"/>
 </g>
</svg>
