<?xml version="1.0" encoding="UTF-8"?>
<!-- Created with Inkscape (http://www.inkscape.org/) -->
<svg width="34.819mm" height="37.412mm" version="1.1" viewBox="0 0 34.819 37.412" xmlns="http://www.w3.org/2000/svg">
 <g transform="translate(-71.958 -52.005)">
  <path id="FI" d="m81.722 87.3 0.52917 0.05292-0.15875 0.74083-0.60854-0.47625zm-0.50271 0.13229-0.55562-0.15875 0.23812-0.21167zm-1.7198-0.71438-0.39688 0.18521-0.07937-0.44979zm6.7469-16.642-0.39688 0.13229-0.34396-0.07937-0.05292-0.23812 0.52917-0.15875zm7.964-14.446-0.97896 0.34396 0.42333 0.21167 0.21167 0.3175-0.52917 0.84667 0.02646 0.15875 0.82021 1.0583 1.905 0.44979 0.60854 0.47625 0.9525 0.60854 0.47625 0.23812 0.02646 0.50271-0.79375 0.79375-0.68792 0.82021-0.3175 0.44979 0.10583 0.44979 0.68792 0.55562 0.60854 0.58208 0.79375 0.92604 0.79375 0.66146 0.79375 1.1112 0.10583 0.37042-0.97895 0.18521 0.3175 0.23812-0.15875 0.34396 0.07937 0.50271-0.13229 0.39688 0.50271 0.07937 0.07937 0.34396-0.44979 0.26458v0.23812l0.37042 0.44979 0.26458 0.15875 0.84667 0.15875 0.23812 0.42333-0.26458 0.44979 0.47625 0.58208 1.1906 0.47625 0.18521 0.34396 0.0529 0.44979-0.635 0.79375-0.52917 0.21167 0.18521 0.21167 1.1906 0.68792 1.7462 0.76729 0.68792 0.34396 0.55563 0.50271 0.58208 0.42333 0.13229 0.26458-0.42333 1.1906-0.18521 0.3175-0.58208 0.58208-0.89959 0.74083-0.60854 0.60854-1.4023 1.561-0.50271 0.39688-0.55562 0.58208-1.2965 0.87312-0.18521 0.21167-0.66146 0.39688-1.4817 1.3758-0.92604 0.26458-0.68792-0.29104-0.47625 0.05292-0.3175 0.21167-0.66146 0.05292-0.52917 0.15875-0.26458-0.18521-0.18521 0.15875-0.50271 0.05292-0.52917-0.26458 0.07937 0.39688-0.87312 0.39688-0.21167-0.23812-0.52917 0.26458-0.55562 0.05292-0.29104 0.21167-1.561 0.29104-0.39688 0.34396-0.3175-0.07937-1.7727 0.29104-0.76729-0.05292-0.71438 0.52917-0.47625 0.10583 0.39688-0.79375-0.635-0.29104-0.3175-0.42333-0.18521 0.10583-0.07937 0.39688-0.39688 0.21167-0.52917-0.02646-0.10583-0.635 0.21167-0.60854-0.9525-0.15875-1.0054-0.37042-0.23812-0.02646-0.18521-0.34396-0.52917 0.23812-0.55562-0.23812-0.44979-1.4023v-0.34396l0.23812-0.42333-0.02646-0.89958-0.15875-0.52917 0.29104-0.15875-0.23812-0.42333-0.58208-0.79375-0.42333-0.29104 0.13229-0.87312-0.15875-0.42333-0.50271-0.29104-0.29104-0.76729 0.15875-0.635 0.635-0.58208v-0.3175l0.23812-0.29104-0.13229-0.34396 0.71438-0.13229 0.26458 0.10583 0.635-0.10583 0.50271-0.26458-0.29104-0.47625 0.39688-0.18521 0.3175-0.3175-0.02646-0.26458 0.60854-0.13229 0.635-0.50271 0.60854-0.29104 0.60854-0.50271 0.29104-0.02646 0.07937-0.34396 0.66146-0.50271 0.21167-0.42333 0.60854-0.47625 0.58208-1.0319 1.0054-0.3175 1.0054 0.07937-0.15875-0.44979 0.26458-0.07937-0.15875-0.34396-0.26458-0.15875v-1.2171l-0.34396-0.23812-1.1906-0.42333-0.44979-0.02646-0.3175-0.3175-1.2171-0.18521-0.42333-0.66146-0.50271-0.58208-0.47625-0.15875-0.34396-0.68792v-0.34396l0.39688-0.34396-0.02646-0.47625 0.18521-0.37042-0.15875-0.23812-0.87312-0.68792-0.21167-0.42333 0.02646-0.29104 0.26458-0.21167-0.15875-0.34396-0.74083-0.10583 0.07937-0.50271-0.18521-0.37042-0.10583-0.635 0.29104-0.26458-0.47625-0.23812-0.50271-0.39688-0.37042-0.02646-0.3175-0.42333-0.92604-0.47625-2.196-0.44979-1.1112-0.47625-1.27-0.60854-0.76729-0.29104-0.10583-0.23812-0.76729-0.21167 0.13229-0.10583h0.55562l0.50271 0.10583 0.13229-0.15875-0.26458-0.37042 0.50271-0.29104h0.9525l2.0902 1.4552 0.37042 0.47625 1.8256 0.15875 0.21167 0.13229 0.47625-0.02646 0.97896-0.23812 0.3175-0.3175 0.39688 0.02646 0.9525 0.29104 1.0319 0.21167 0.68792 0.21167 0.34396-0.15875 0.13229-0.44979 0.42333-0.34396 0.55562-0.07937 0.39688-0.37042-0.18521-0.84667 0.15875-0.44979 0.18521-1.0054 0.68792-0.44979 0.44979-0.47625 0.55562-0.05292 1.0054 0.10583 0.23812-0.05292 0.92604-0.42333 0.76729-0.07938 0.47625 0.3175 1.1112 0.52917 1.1112 0.29104 0.9525 0.21167 0.68792 0.71438-0.18521 0.26458-0.84667 0.76729v0.18521z" stroke-width=".26458" name="Finland"/>
 </g>
</svg>
