<svg width="47.228mm" height="39.502mm" version="1.1" viewBox="0 0 47.228 39.502" xmlns="http://www.w3.org/2000/svg">
 <g transform="translate(-83.098 -94.769)">
  <path id="FR"  name="France" fill="#1fd495" stroke-width=".265" stroke='none' d="m129.98 128.42-0.0794 0.60854 0.26458 0.44979 0.15875 1.7198-0.47625 0.84667 0.0265 0.79375-0.42333 1.1377-0.21167 0.29104-1.0054-0.52917-0.3175-0.29104 0.26458-0.47625-0.58208-0.23813 0.10583-0.44979-0.0529-0.23812-0.42333-0.13229 0.26458-0.34396v-0.21167l-0.39687-0.26458-0.0794-0.23813 0.34396-0.29104-0.15875-0.23812 0.0265-0.34396 0.23812-0.50271 0.3175-0.23813 0.74084-0.21166 0.3175-0.29104 0.50271 0.15875 0.15875-0.3175-0.0529-0.71438 0.0794-0.29104 0.34396 0.13229zm-35.428-12.674-0.10583 0.37042-0.50271-0.635 0.26458-0.13229zm22.331-14.711 0.55563 0.3175h0.37041l0.52917-0.15875 0.34396 0.18521 0.37041 0.0265 0.92605 1.1377 0.47625-0.18521 0.37041 0.10583 0.0794 0.23813 0.55562 0.0264 0.79375-0.15875 0.52917 0.37042 1.27 0.21167 0.42333 0.15875 0.0265 0.34396-0.92604 1.0054-0.37042 1.4552-0.26458 0.47625-0.0794 0.39688 0.0529 0.635-0.15875 0.52916v0.39688l0.29104 0.34396-0.39687 0.1852-0.21167 0.37042-0.71437 0.0794-0.21167-0.21167h-0.29104l-0.47625 0.37042 0.34396 0.29104-0.15875 0.23812-1.0054 1.0583-0.55563 0.23812-0.13229 0.76729-0.79375 0.58209-0.29104 0.76729 0.21167 0.18521-0.0794 0.39687-0.39687 0.26458v0.26459l0.37041 0.0265 0.60855-0.42334-0.1323-0.34396 0.60855-0.39687 0.5027-0.0265 0.58209 0.0794 0.21166 0.58208-0.13229 0.44979 0.60854 0.60854 0.23813 0.37042-0.68792 0.44979 0.0265 0.42333 0.23813 0.15875 0.44979 0.68792 0.47625 0.42333-0.21167 0.66146-0.3175 0.0794-0.44979 0.34396-0.50271-0.0529-0.21167 0.10583 0.39688 0.82021 0.84667 0.37042 0.13229 0.44979-0.21167 0.18521-0.37042 0.66146 0.18521 0.34395 0.0265 0.37042 0.23813 0.23813 1.3494 0.635 0.87313-0.15875 0.0794 0.52916-0.55562 0.68792 0.0529 0.39687-0.15875 0.0794-0.21166 0.0794-0.635 0.29105-1.0319 0.89958-0.47625 0.26458-0.18521 0.47625-0.52916 0.37042-0.635 0.13229-0.60855 0.26458-0.29104-0.10583h-0.74083l-0.44979-0.3175-0.89959-0.21167-0.29104-0.47625-0.66146-0.0265-0.21166-0.39688-0.50271 0.0794-0.39688 0.1852-0.52916-0.0264-1.561-0.47625-0.37042-0.37042-0.44979 0.13229-0.42334 0.42333-1.7198 1.0848-0.68791 1.1377-0.0265 0.3175 0.18521 1.0319 0.42333 0.66146-0.82021-0.15875-1.0054 0.29104-0.3175 0.21167-1.2435-0.3175-0.55562 0.29104-0.34396-0.3175-0.74083-0.3175v-0.39688l-0.68792-0.15875-0.23813 0.18521-0.29104-0.39687-0.44979-0.0794-0.66146-0.26458-1.0583-0.29104-0.21167 0.635h-1.2435l-0.18521-0.10584-0.82021 0.10584-0.84667-0.55563-0.9525 0.10583-0.58208-0.55562-0.58208-0.0529-1.1642-0.44979-0.47625 0.10583 0.07937-0.84666-1.1377-0.34396-0.13229-0.34396 0.52917-0.13229 0.50271-0.50271 0.44979-1.8785 0.34396-2.196 0.26458-0.42334 0.3175-0.10583-0.26458-0.3175-0.29104 0.39688 0.18521-2.0108 0.13229-0.74083 0.23812-0.79375 0.82021 0.635 0.21167 0.26458 0.23812 0.89959 0.15875 0.0264-0.29104-1.2171-0.47625-0.60854-0.9525-0.60854-0.13229-0.34396 0.47625-0.15875-0.13229-0.47625-0.13229-1.561-0.79375-0.15875-1.27-0.68792-0.44979-0.68792-0.42333-0.5027-0.10583-0.4498 0.23812-0.47625-0.21167-0.29104-0.37042-0.21166 0.29104-0.42334-0.79375-0.0529-0.47625-0.1323-0.07937-0.29104 0.34396-0.37041-0.42333-0.21167-0.68792 0.0529-0.05292-0.4498-0.58208 0.0794-0.3175-0.0794-0.29104-0.29104-0.34396 0.0529-0.58208-0.10583-0.21167-0.18521-1.27-0.34396-0.52917-0.0265-0.50271 0.15875-0.29104-0.0794-0.34396-0.58209-0.82021-0.29104 0.15875-0.18521 0.82021-0.15875 0.15875-0.18521-0.58208-0.23812-0.05292-0.3175 0.42333 0.0794 0.02646-0.3175-1.0583 0.0265-0.10583-0.34396 0.13229-0.37041 0.60854-0.3175 1.5346-0.37042 0.66146 0.0529 0.44979-0.0529 0.79375-0.42333 0.76729-0.10584 0.71438 0.21167 0.66146 0.74083 0.3175 0.26459 0.82021-0.44979 1.1642 0.0264 0.23812 0.23813 0.3175-0.44979 0.26458 0.26458 1.2435-0.0529-0.39688-0.66145-0.05292-1.5875-0.34396-0.4498-0.55562-1.1377 0.05292-0.37042 0.84667 0.0794 0.71438-0.15875 0.34396 0.10584 0.07937 0.74083 0.29104 0.42333h0.58208l0.60854 0.1323 0.79375 0.0264 1.1377 0.21167 0.47625-0.13229 0.92604-0.52917-0.47625-0.18521-0.05292-0.1852 0.23812-0.58209 1.3758-0.66146 0.97896-0.18521 1.0054-0.34396 0.52916-0.37042 0.3175-0.47625 0.13229-0.34396 0.0794-1.7992 0.26458-0.58208 0.76729-0.42333 1.6933-0.29104 0.23812-0.13229 0.23813 0.58208v0.3175l0.76729 0.635 0.84667-0.26458 0.42333 0.47625 0.13229 0.52917 1.1112 0.29104 0.15875 0.52917 0.23813-0.07937 0.9525 0.10583 0.42333 0.29104-0.10583 0.42333 0.1852 0.18521-0.1852 0.37042 0.13229 0.15875 0.60854 0.07937 0.58208-0.07937 0.34396-0.15875 0.13229-0.37042 0.50271-0.15875-0.21167 0.71438 0.15875 0.15875 0.10584 0.52917 0.44979 0.0265 0.87312 0.39688 0.74084 0.68791z"/>
 </g>
</svg>