<svg width="40.693mm" height="42.73mm" version="1.1" viewBox="0 0 40.693 42.73" xmlns="http://www.w3.org/2000/svg">
 <g transform="translate(-101.11 -.61347)">
  <path id="IT" name="Italy" fill="#1fd495" stroke-width=".265" stroke='none' d="m132.47 36.994-0.3175 0.66146-0.74083 1.1377-0.39688 1.3494 0.0794 0.52917 0.42333 0.37042-0.18521 0.13229 0.42334 0.47625 0.0265 0.34396-0.47624 0.50271-0.10584 0.44979 0.0265 0.39688-0.76729-0.15875-0.37042 0.07937-0.97896-0.37042-0.5027-0.74083-0.79375-0.52917h-0.79375l-0.37042-0.13229-0.76729-0.50271-0.79375-0.37042-0.68792-0.55562-0.44979-0.10583-0.39688-0.26458h-0.76729l-0.60854-0.42333-0.34396-0.60854 0.34396-0.97896 0.37042-0.21167 0.23812-0.3175 0.60854 0.60854 0.47625-0.21167 0.37042-0.42333 0.635 0.02646 0.13229 0.23812 0.37042 0.07938 0.66146 0.42333 0.37041 0.10583 0.89959-0.26458 0.79375 0.10583 0.74083-0.13229 0.44979-0.15875 0.3175-0.26458 0.37042-0.07937 0.92604 0.07937 0.52917-0.3175 0.21166 0.05292 0.52917-0.3175zm-20.717-10.98 0.18521 0.23812 0.47625 1.3229-0.15875 0.42333-0.34396 0.52917 0.21166 0.74083-0.15875 3.0427-0.15875 0.76729-0.23812 0.10583-0.76729-0.3175-0.39688 0.07938-0.3175-0.15875-0.0794 0.79375-0.47625 0.55562-0.79375-0.05292-0.18521-0.15875-0.635-1.0054-0.10583-1.1377 0.15875-0.34396v-0.66146l0.29104-0.02646v-0.44979l-0.47625-0.3175v-0.50271l0.18521-0.37042-0.0265-0.68792-0.21167-0.23812-0.21167-0.60854-0.58208-0.635 0.0265-0.89958 0.89958 0.15875 0.34396-0.07937 0.82021-0.39688 0.55562-0.66146 0.37042-0.13229 0.39688-0.47625 0.1852 0.23812 0.58209 0.21167 0.3175 0.39688 0.23812 0.13229-0.18521 0.37042zm2.196-8.1492 0.0794 0.37042-0.66145 0.13229-0.29105-0.29104 0.7673-0.05292zm10.028-14.975-0.0529 0.23812-0.87312 0.60854 0.1852 0.37042 0.60855 0.18521-0.42334 0.55562 0.0794 0.26458 0.34396 0.052917-0.10584 0.52917 0.50271 0.29104 0.39688 0.34396 0.0529 0.34396-0.39687 0.026458 0.18521-0.15875-0.52917-0.58208-0.52917 0.23812-0.84666-0.23812-0.55563 0.52917-0.39687 0.10583-0.4498 0.29104-0.84666 0.3175-0.47625-0.10583-0.26459 0.18521-0.10583 0.82021 0.21167 0.15875 0.39687 0.68792 0.44979 0.29104-0.1852 0.50271-0.23813 0.18521-0.34396-0.13229-0.0794 0.44979 0.23812 1.1906 0.37042 0.84667 0.3175 0.34396 0.71437 0.58208 0.71438 0.29104 1.3494 0.97896 0.74084 0.29104 0.18521 0.18521 0.47625 0.74083 0.42333 0.84667 0.47625 1.3494 0.34396 0.66146 0.60854 0.76729 1.27 1.0848 1.1377 0.76729 1.0583 0.50271 0.79375 0.07938 1.8521-0.10583 0.68792 0.18521 0.10583 0.3175-0.10583 0.23812-0.76729 0.55562v0.44979l0.39687 0.3175 1.8785 0.84667 1.905 0.68792 0.58209 0.37042 0.71437 0.55562 1.6933 0.76729 0.29104 0.37042 1.0583 0.79375 0.47625 0.635 0.13229 0.47625-0.39687 1.1642-0.42334-0.13229-0.5027-0.34396-0.82021-1.4288-1.3229-0.13229-0.76729-0.34396-0.18521-0.37042-0.60854-0.10583-0.34396 0.23812-0.37042 0.52917-0.39687 0.79375-0.39688 1.1377v0.44979l0.29105 0.44979 0.76729 0.26458 0.635 0.39688 0.42333 0.42333 0.0794 1.0054 0.23812 0.55562-0.23812 0.34396-0.50271-0.07938-0.66146 0.18521-0.44979 0.37042-0.18521 0.37042 0.13229 0.89958-0.0794 0.37042-0.87313 0.66146-0.42333 0.66146-0.26459 0.60854h-1.1377l-0.29105-0.39688-0.0264-0.58208 0.15875-0.34396 0.42333-0.18521 0.23812-0.74083-0.13229-0.52917 0.29104-0.42333 0.74084-0.18521v-0.76729l-0.37042-0.34396-0.37042-1.3494-0.635-1.1377-0.37041-1.0054-0.29104-0.47625-0.37042-0.26458-0.97896-0.07937-1.2171-0.68792-0.0794-0.29104 0.15875-0.29104-0.29104-0.74083-0.52916-0.44979-0.68792 0.15875-0.3175-0.02646-0.0265-0.39688-0.52917-0.34396-0.71437-0.05292-0.18521-0.18521-0.68792-1.0583-0.44979-0.44979-0.60854 0.02646-1.0319-0.23812-0.52917 0.18521-0.84667-0.68792-0.74083-0.23812-1.5081-1.4023-0.47625-0.52917-0.92604-0.58208-0.60854-0.84667-0.47625-0.3175-1.0583-0.37042-0.0794-0.34396-0.82021-0.82021-0.44979-0.26458-0.34396-0.55562-0.66145-0.13229 0.0264-0.71438-0.3175-0.92604-0.44979-0.58208-0.3175-1.4023-0.21166-0.39688-0.47625-0.29104-1.0583-0.3175-1.5081-0.89958-0.29104-0.02646-0.89959-0.34396-0.55562-0.05292-0.68792 0.3175-0.82021 0.84667-0.66146 0.89958-0.23812 0.15875-0.89958 0.3175-0.79375 0.13229-0.0529-0.39688 0.55562-0.68792-0.0794-0.52917-0.87313 0.15875-1.3494-0.635-0.23813-0.23812-0.0264-0.37042-0.18521-0.34396 0.37041-0.66146 0.21167-0.18521-0.13229-0.44979-0.84667-0.37042-0.39687-0.82021 0.21166-0.10583 0.50271 0.052917 0.44979-0.34396 0.3175-0.079375 0.21167-0.66146-0.47625-0.42333-0.44979-0.68792-0.23813-0.15875-0.0264-0.42333 0.68791-0.44979 0.37042 0.18521 0.635-0.13229 0.68792-0.26458 0.8202 0.21167 0.635-0.37042 0.42334-0.58208-0.15875-0.39688 0.89958-0.76729 0.26458 0.15875 0.0529 0.66146 0.635 0.52917 0.58208 0.15875-0.10583 0.3175 0.34396 0.3175 0.23812 0.37042 0.3175-0.18521-0.1852-0.44979 0.0529-0.26458 0.58209-0.68792 0.13229-0.29104v-0.76729l0.52916-0.026458 0.21167 0.55562 0.52917 0.21167 0.76729-0.29104 0.18521 0.026458 0.37041 0.50271 0.3175-0.079375-0.39687-0.92604 0.15875-0.47625 0.34396-0.079375 0.26458 0.23812 0.50271 0.052917-0.13229-0.47625 0.13229-0.82021 0.79375 0.079375 0.23812 0.21167 0.55563 0.10583 0.29104-0.10583 0.3175-0.58208 0.37042-0.15875 0.89958-0.079375 0.82021 0.052917 1.2435-0.39688v0.60854l0.82021 0.92604 0.29104 0.13229 2.2754 0.39687 1.0583 0.079375z"/>
 </g>
</svg>
