<?xml version="1.0" encoding="UTF-8"?>
<!-- Created with Inkscape (http://www.inkscape.org/) -->
<svg width="11.8mm" height="10.716mm" version="1.1" viewBox="0 0 11.8 10.716" xmlns="http://www.w3.org/2000/svg">
 <g transform="translate(-101.45 -141.08)">
  <path id="NL" d="m104.2 149.23-0.15875 0.3175-0.84667 0.39687-1.0319-0.29104-0.3175 0.15875-0.3175-0.18521-0.0794-0.34395 0.74084-0.10584 0.92604 0.18521 0.39687-0.15875 0.3175 0.13229zm-0.89958-1.4023 0.39687 0.37041-0.39687 0.0794-0.42334-0.26458zm4.789-2.249-0.79375-0.10583-0.23812-0.18521 0.635-0.44979 0.84667-0.39688 0.44979 0.10583 0.13229 0.23813-0.29104 0.29104zm-2.0108-3.0427-0.29104 0.29104-0.15875-0.37041 0.44979-0.37042zm-1.8785 6.694-0.68792-0.21167-0.58208 0.13229-0.74083-0.1852-0.4498-0.34396 0.3175-0.18521 0.60855-0.0265 1.0583 0.18521 0.3175-0.23813-0.15875-0.26458-0.60854-0.55562 0.42333-0.71438 0.37042-0.26458 0.84666-1.0054 0.23813-0.52917 0.3175-1.4552 0.26458-0.52917 0.37042 0.13229 0.52917-0.21167 0.89958-0.52916 0.26458-0.44979 0.26459-0.23813 1.0583-0.42333 0.55562-0.10584 2.3548-0.13229 0.47625 0.44979 0.71437 0.15875 0.0265 1.1377-0.18521 0.44979-0.29104 1.0054-0.82021-0.0265-0.15875 0.42334 0.18521 0.26458 0.68792 0.0794 0.21166 0.26459-0.15875 0.68791-0.68791 0.42334-0.0794 0.23812 0.26458 0.23813-0.1852 0.26458-1.1906 0.34396-0.60854-0.21167-0.47625 0.18521-0.18521 0.29104 0.82021 1.0848v0.3175l-0.34396 0.74084 0.18521 0.3175-0.58208 0.42333-0.1323 0.21167 0.50271 0.3175-0.15875 0.635-0.3175-0.0265-0.635-0.0794-0.18521-0.29104 0.29105-0.34396 0.26458-0.76729-0.68792-0.29104-0.44979-0.34396-0.50271 0.10584-0.68791-0.37042-0.1323-0.42333-0.66145 0.21166-0.29105-0.34396-0.39687 0.26459-0.39688-0.21167-0.37041 0.18521 0.0529 0.23812zm4.789-4.1275 0.23812-0.23813-0.13229-0.5027-0.55562-0.0794-0.1323-0.21167 0.10584-0.66145-0.74084-0.10584-0.10583-0.66146-0.39687 0.0794-0.60855 0.39687 0.15875 0.34396 0.42334 0.42334v0.23812l-0.55563 0.18521 0.0265 0.68792-0.0529 0.42333 1.4288 0.37042z" stroke-width=".26458" name="Netherlands"/>
 </g>
</svg>
