<svg width="105.22mm" height="77.523mm" version="1.1" viewBox="0 0 105.22 77.523" xmlns="http://www.w3.org/2000/svg">
 <g transform="translate(-46.857 -28.489)">
  <path id="NO" name="Norway" fill="#1fd495" stroke-width=".265" stroke='none' d="m85.089 97.254 0.02646 0.44979-0.26458-0.02646-0.18521-0.29104-0.05292-0.52917 0.18521-0.13229zm-0.47625-2.9369h-0.47625l0.07937-0.34396 0.23812-0.07937zm8.599-8.4402-0.60854-0.05292-0.26458-0.21167 0.74083-0.21167 0.18521 0.13229zm0.9525-1.2171-0.07937-0.23812 0.71438-0.15875 0.23812 0.26458zm7.4083-4.3921-1.1112 0.07937-0.0794-0.29104 0.55562-0.21167h0.3175zm1.7992-2.7781-0.52917 0.07937 0.0265-0.29104 0.47625-0.07938zm1.0848-1.5081-0.0265-0.29104 0.26459-0.3175 0.26458 0.10583-0.0794 0.39688zm0.82021-6.5881-0.39687 0.18521 0.29104-0.68792 0.29104-0.18521 0.10583 0.39688zm2.249-1.3758 0.60854 0.05292-0.13229 0.21167-0.37042 0.07937-0.29104 0.21167-0.50271 0.05292-0.50271 0.26458-0.42333 0.07937-0.10583-0.3175 0.23812-0.26458h0.34396l0.26458-0.3175zm3.2808-2.3812 0.58209 0.55562-0.0794 0.39688-0.3175 0.18521-0.87312 0.02646-0.42334-0.23812-0.58208 0.15875-0.42333-0.29104 0.42333-0.37042 0.68792 0.10583 0.13229-0.44979 0.44979 0.07937 0.10583-0.39688zm1.6669 1.3229 0.34396-0.29104 0.39687-0.10583 0.15875-0.58208 0.47625-0.13229 0.42333 0.26458 0.23813 0.3175-0.0529 0.29104-0.82021 0.3175-0.66145 0.52917-0.42334-0.05292-0.18521 0.18521-0.635 0.15875-0.44979-0.23812-0.23812 0.23812-0.37042 0.10583-0.3175-0.10583-0.76729 0.39688-0.74083 0.07937-0.26459-0.29104 0.82021-0.50271 1.3494-0.15875 0.76729-0.60854 0.10583-0.66146 0.15875-0.23812-0.34396-0.15875 0.0529-0.44979 0.635-0.44979 0.34396-0.37042 0.39687-0.07937 0.23813 0.29104-0.29104 0.37042-0.42334 0.3175 0.29104 0.39688 0.15875 0.635zm4.101-3.6248 0.37042 0.21167 0.39687-0.07937 0.60854 0.18521 0.26459 0.39688-0.3175 0.23812 0.10583 0.44979-1.0054 0.13229-0.23812-0.13229-0.39688 0.23812-0.37041 0.37042-0.58209-0.15875 0.0529-0.42333-0.0794-0.60854 0.18521-0.13229 0.76729 0.07937-0.10583-0.52917zm32.808-0.68792-0.47625 0.10583 0.0529-0.47625zm-24.448-1.0054-0.34396 0.10583-0.47625-0.07937-0.18521-0.26458 0.58209-0.26458 0.44979 0.07937zm-3.9952 0.07937 0.26459 0.18521 0.39687-0.13229 0.29104 0.26458-0.37041 0.21167-0.21167 0.3175-0.52917 0.02646-0.76729 0.60854-0.0265 0.21167-1.3229 0.13229-0.39688-0.07937 0.44979-0.71438h0.4498l0.44979-0.21167-0.0794-0.21167 0.66146-0.52917 0.15875-0.44979 0.37042-0.26458zm1.27-0.52917 0.37042 0.05292 0.34396 0.42333h-0.60854l-0.52917-0.47625zm9.869-1.1377 0.13229 0.29104-0.87312 0.55562-0.42334 0.02646-0.55562-0.3175 0.0265-0.21167 0.50271-0.23812 0.23812 0.02646 0.71438-0.37042zm1.0319-0.07937-0.47625 0.13229-0.4498-0.23812-0.0529-0.42333 0.21166-0.07937 0.84667 0.3175zm-1.6933-0.84667-0.10583 0.21167-0.71438 0.55562-0.58208 0.18521-0.47625-0.07937-0.21167 0.15875h-0.52916l-0.52917-0.15875-0.52917-0.3175 0.92605-0.02646 0.15875-0.13229h0.39687l0.74083-0.10583 0.29105 0.07938 0.55562-0.37042zm16.034 6.2177-0.44979-0.34396v-0.18521l0.84667-0.76729 0.18521-0.26458-0.68792-0.71438-0.9525-0.21167-1.1112-0.29104-1.1112-0.52917-0.47625-0.3175-0.76729 0.07937-0.92604 0.42333-0.23813 0.05292-1.0054-0.10583-0.55562 0.05292-0.44979 0.47625-0.68792 0.44979-0.18521 1.0054-0.15875 0.44979 0.18521 0.84667-0.39687 0.37042-0.55563 0.07937-0.42333 0.34396-0.13229 0.44979-0.34396 0.15875-0.68792-0.21167-1.0319-0.21167-0.9525-0.29104-0.39688-0.02646-0.3175 0.3175-0.97896 0.23812-0.47625 0.02646-0.21166-0.13229-1.8256-0.15875-0.37042-0.47625-2.0902-1.4552h-0.9525l-0.50271 0.29104 0.26458 0.37042-0.13229 0.15875-0.50271-0.10583h-0.55562l-0.1323 0.10583-1.3494 0.05292 0.68792 0.42333 0.0264 0.52917-0.37041 0.50271-0.42334 0.23812 0.7673 0.23812-0.66146 0.42333-0.26459-0.02646-2.2754-0.44979-0.76729-0.02646-1.0848-0.23812-0.55563 0.13229v0.21167l0.21167 0.9525-0.55563 0.82021-1.6669-0.47625-0.39688 0.23812-0.97896 0.50271-0.39687 0.92604-0.29104 0.29104-0.71438 0.15875-0.13229 0.29104 0.71438 0.60854 0.26458 0.34396-0.0529 0.37042-0.39687 0.26458-0.87313 0.76729-0.79375 0.76729-0.34396 0.23812 0.26459 0.66146-0.87313 0.39688-0.635 0.13229-1.0054 0.10583 0.37041 1.0319-0.15875 0.71438-0.0265 1.2435-0.87312 1.3229-1.1642 1.3229 1.2435 0.42333 0.29105 0.76729 0.0264 0.3175-0.44979 0.58208-1.8785-0.23812-0.87312 0.10583-0.87313 0.39688-0.92604 1.0054-0.3175 0.26458 0.13229 0.39688-0.52917 0.74083 0.71438 1.0848-0.29104 0.29104 0.15875 0.74083-0.0265 0.47625 0.66146 1.1642v0.42333l-0.23813 1.6933 1.0054 0.55562 0.3175 0.10583 0.89958 0.71438-0.10583 0.50271-0.34396 0.66146h-0.635l-0.47625 0.15875 0.0794 0.42333 0.8202 1.2965 0.1323 0.37042-0.15875 0.55562-0.0265 0.74083-0.50271 0.52917-0.34396 0.21167-0.68792 0.18521-0.23812 0.635-0.39688 0.39688 0.42334 1.1642-0.15875 1.0319-0.18521 0.37041-0.50271 0.0529-0.26458-0.47625-0.10584-0.26458-1.5875-0.3175-0.60854-0.76729-0.10583-0.82022-0.66146 0.31751 0.15875 0.29104v0.60854l-0.66146 1.0319-0.29104-0.0529-0.34396 0.21167-0.34396 0.0529-0.15875-0.26458-0.29104 0.0529-0.21167 0.26458-0.89958 0.34396 0.26458 0.18521-0.44979 0.26458-0.15875 0.23812-0.71438 0.39688-1.1377 1.0319-0.60854 0.29105-0.42333 0.3175h-0.37042l-0.47625 0.23812-1.2171 0.23813-0.82021-0.10584-0.55562 0.10584-0.29104-0.18521v-0.29104l-0.3175-0.0265-0.21167 0.3175-0.42333-0.10584 0.18521-0.635-0.82021-0.0264-1.0054-0.42334-0.23812-0.21166-0.82021-0.34396-0.37042-0.37042-0.21167-0.42333 0.07937-0.9525 0.15875-0.13229 0.71438 0.21166 0.74083 0.34396-0.02646-0.3175-0.635-0.42333 0.21167-0.47625-0.05292-0.42334 0.68792-0.55562-0.10583-0.18521-0.89958 0.52917-0.82021 0.23812-0.29104 0.3175-0.29104 0.15875h-0.55562l-0.13229-0.23812 0.13229-0.87313 0.3175-0.71438 0.47625-0.26458 0.89958 0.18521 0.26458-0.26458 0.34396-0.05292 0.635-0.3175-1.0848 0.13229-0.3175-0.26458 0.74083-0.635 0.3175-0.37042 0.07937-0.39688 0.58208-0.44979 0.47625-0.21167 0.42333 0.15875 0.39688-0.50271-1.3229 0.29104-0.52917 0.29104-0.71438 0.74083-0.05292 0.29104-0.52917 0.23812-0.39688 0.39688-0.15875 0.3175-0.74083 0.50271-0.37042 0.07937v-0.635l0.29104-0.52917-0.07938-0.42333 0.84667 0.05292 0.47625-0.3175h-0.71417l-0.37042-0.18521-0.3175-0.39688-0.15875-0.50271 0.29104-0.47625-0.58208-0.52917-0.13229-0.58208-0.02646-0.66146 0.23812-0.13229 0.55562 0.10583 0.635-0.05292 1.3758-0.23812 0.89958 0.15875 0.37042-0.02646 0.52917-0.18521 0.50271-0.02646 0.58208 0.3175 0.18521-0.13229 1.4288-0.3175-0.79375-0.39688 0.02646 0.37042-0.9525 0.07937-0.84667-0.15875-0.34396-0.15875-0.13229 0.34396-0.29104 0.07937-0.89958-0.13229-1.2435 0.07937-0.55562 0.18521-0.37042-0.02646-0.66146-0.3175-0.23812-0.23812-0.07937-0.68792 0.74083-0.07937-0.50271-0.60854-0.50271-0.34396-0.05292-0.37042 0.18521-0.34396 0.39688 0.05292 1.0054-0.02646 1.5875 0.39688 1.2965-0.07937-0.21167-0.15875h-0.76729l-1.905-0.34396-0.58208 0.02646-0.3175-0.07937-0.18521-0.26458 0.10583-0.50271 0.29104-0.10583 0.3175 0.15875 0.50271-0.60854 0.50271-0.26458 0.52917-0.13229 0.52917 0.26458 0.34396-0.02646 1.0583-0.21167-0.34396-0.13229-0.92604 0.13229-0.05292-0.13229 0.635-0.60854 1.1112-0.10583 1.561 0.13229 0.60854 0.21167 0.10583-0.47625 1.4023-0.37042-1.7992 0.21167-0.47625-0.13229-1.2965 0.18521-0.02646-0.34396 0.60854-0.60854 1.0848-0.23812 0.50271-0.29104 0.82021-0.05292 0.68792 0.07937 0.3175 0.34396 1.1642 0.44979-1.3494-1.0583 0.29104-0.44979 0.87312-0.10583v-0.42333l-0.58208-0.07937v-0.3175l0.50271-0.23812 0.74083-0.18521 0.84667 0.21167-0.15875 0.34396 0.23812 0.13229 0.44979-0.39688 1.0319-0.21167 0.74083 0.55562 0.13229 0.29104 0.29104-0.13229 0.71438-0.13229 0.71438 0.07937 0.47625-0.05292-0.26458-0.34396 0.10583-0.26458 0.635-0.26458 0.44979-0.07937 0.68792-0.3175-0.21167-0.26458-0.37042-0.07937 0.7673-0.39688-0.4498-0.15875-0.635 0.23812-0.42333 0.23812 0.39688 0.26458-0.29105 0.29104-1.614 0.74083-0.79375 0.21167-0.37042-0.02646-0.50271-0.66146-0.55562-0.02646 0.34396-0.58208 0.42333-0.21167 0.37042-0.60854 0.60854-0.34396 0.84667-0.87312 0.74084-0.29104 0.23812-0.29104 0.79375-0.39688 0.79375-0.23812 0.0794-0.26458-0.71438 0.23812 0.10583-0.55562 0.37042-0.26458 1.7992-0.74083 0.42333 0.34396 0.55563-0.05292 0.60854-0.42333-0.0794-0.18521-0.55562 0.26458h-0.39688l-0.10583-0.15875-0.55563-0.13229-0.0794-0.3175 0.34396-0.74083 0.89958-0.87312 0.13229-0.34396 0.34396-0.18521 0.44979 0.05292-0.0529-0.29104-0.55563-0.29104 1.6404-0.29104h0.79375l0.635-0.23812 0.13229-0.26458-1.6933 0.29104-0.635 0.02646-0.21167-0.71438 0.0529-0.39688 0.5027-0.58208 0.37042-0.05292 0.44979-0.29104 0.0265-0.39688 0.60854-0.21167 0.55563-0.55562 0.60854-0.13229 0.37042 0.05292 0.79375-0.18521 1.7462-0.02646 0.0265-0.15875-1.6669-0.07937-0.92604 0.05292-0.10584-0.15875 0.74084-0.71438 0.52916-0.26458 0.4498 0.05292 0.47625 0.26458 0.15875-0.21167-0.42334-0.39688 0.18521-0.39688-0.68792 0.29104-0.47625 0.07937-0.23812-0.52917 0.60854-0.52917h0.60854l0.0794-0.39688 0.87312-0.34396 0.50271-0.05292 0.39688-0.15875 0.15875 0.10583 0.23812 0.60854 0.39688 0.07937 0.26458-0.21167-0.34396-0.29104-0.29104-0.47625 0.52917-0.39688 0.60854-0.05292 0.68791 0.18521 0.60855-0.05292 0.23812-0.3175-1.6669-0.02646-0.21167-0.23812 0.3175-0.3175 0.58208-0.21167 0.66146-0.02646 0.635-0.37042 0.23813-0.29104 0.0794-0.42333 0.37042-0.34396 1.0319-0.21167-0.15875-0.58208 0.21167-0.37042 0.26458-0.15875 0.55563 0.39688 0.47625 0.13229-0.13229-0.37042 0.0794-0.3175h0.55563l0.26458-0.13229 0.0794-0.34396 0.37042-0.3175 1.2435-0.18521 0.13229 0.66146 0.18521 0.37042 0.21167-0.74083 0.42333-0.55562 0.635-0.23812 0.23813 0.29104-0.10584 1.1377-0.50271 0.635 0.39688-0.05292 0.66146-0.60854 0.15875-0.3175-0.18521-0.74083 0.15875-0.21167 0.92604-0.02646 0.50271 0.10583 0.18521-0.39688 0.44979-0.02646 0.47625 0.23812 1.0848 0.37042-0.34396-0.58208-0.26458-0.21167-0.55563-0.13229-0.58208-0.26458 0.3175-0.26458 0.635 0.07937 0.52917-0.21167 0.58208-0.05292 0.29104 0.15875 0.21167-0.26458 0.66146-0.13229 0.74083 0.23812 0.42333 0.71438 0.635 0.37042-0.0265-0.37042 0.15875-0.50271 0.60854-0.52917 0.55562-0.26458 0.37042-0.02646 0.76729-0.89958-0.42333-0.26458 0.87312-0.60854 0.29104-0.02646 1.4288 0.55562 0.39688-0.23812 0.89958 0.21167-0.21166 0.26458-0.82021 0.76729-0.13229 0.21167-0.0265 0.58208-0.3175 0.37042 0.21166 0.37042 0.42334-0.10583 0.47625-0.34396 0.0265-0.34396 1.1377-0.97896 0.50271-0.55562 0.60854-0.44979 0.39688-0.07937 0.23812 0.29104-0.0529 0.39688 0.0529 1.1377 0.97896-0.37042 0.29104-0.79375 0.29105-0.18521-0.21167-0.37042 0.10583-0.29104 0.60854-0.34396 0.58209 0.10583 0.87312 0.07937 0.71438 0.21167 0.0529 0.37042-0.21166 0.23812-0.76729 0.29104 0.1852 0.18521 0.52917-0.15875 0.23813 1.4552 0.23812-0.55562 0.26458-0.18521 0.0265-0.39688 0.21167-0.50271 0.47625-0.34396h0.71437l0.87313 0.44979 0.66146 0.07938 0.47625 0.21167 0.635-0.18521 0.52916 0.26458 0.0265 0.26458 1.0054 0.07937 1.0054 0.42333 0.15875 0.42333-1.1642 0.26458-0.47625 0.26458-0.87313 0.10583-3.0427-0.18521 0.10583 0.18521 2.196 0.39688 0.15875 0.13229 0.10583 0.55562 0.47625 0.18521 0.92605-0.05292v-0.34396l0.84666 0.15875 1.0054 0.05292 0.29104 0.44979-0.0794 0.39688-0.635 0.02646-1.1112-0.37042-0.10584 0.60854-0.29104 0.23812-1.5346 0.34396-0.29104 0.68792zm-10.716-7.329 0.97896 0.13229 0.58208 0.37042-0.9525 0.13229-0.44979-0.02646-0.52917-0.47625zm-89.853 1.0319-0.02646-0.26458 1.1906-0.39688 0.50271-0.37042 0.89958-0.13229-0.05292 0.47625-0.79375 0.21167-0.87312 0.13229zm71.226-11.906-0.26458 0.13229-0.50271-0.21167-0.21167-0.3175 0.79375-0.02646zm2.54-13.256 1.0319 0.05292 0.52916 0.50271 0.37042 0.52917 0.34396 0.05292 1.2435-0.10583 0.89958 0.18521-0.37041 0.29104v0.3175l1.4552 0.34396 0.47625 0.02646 0.79375-0.10583 1.7198 0.44979-1.7462 0.29104-0.52917 0.50271-0.97896 0.34396h-0.68792l-0.60854 0.34396-0.58208 0.02646-0.39688-0.50271 0.58209-0.34396-0.82021-0.10583-0.3175 0.13229-2.7781 0.26458-0.29105-0.05292-0.23812-0.3175 0.74083-0.15875 0.0529-0.29104 0.66146-0.635-1.4552-0.42333-0.52917-0.3175-0.21166-0.26458-0.66146-0.23812v-0.26458l-0.44979 0.02646-0.10584-0.3175zm12.224-0.15875h-0.34396l-0.68791-0.21167 0.1852-0.26458zm-36.407 0.10583 0.92604 0.39688 0.50271 0.13229 0.60854 0.39688-0.18521 0.23812-0.52917-0.3175-0.9525-0.34396-0.60854-0.05292-0.87312-0.66146-0.39688-0.21167-0.21167-0.44979 0.9525 0.18521 0.42333 0.26458-0.07937 0.21167zm41.169-0.89958 0.71438 0.02646-0.0265 0.15875-1.9315-0.10583-1.0054 0.18521 0.10584-0.23812 0.635-0.15875 0.97895-0.02646zm-29.078-2.8575 0.37042-0.15875 1.4288 0.21167 0.66146 0.23812 0.34396 0.26458-0.50271 0.50271 0.44979 0.26458 0.84667-0.44979 0.71437 0.07937 0.44979 0.23812 0.26459 0.29104-0.0529 0.37042 0.82021 0.29104 0.89958-0.05292 0.635 0.07937 0.39688 0.26458 0.50271-0.05292 0.0529-0.21167 0.68792 0.05292 0.79375 0.21167-0.55563 0.23812 0.55563 0.21167 0.89958 0.15875 0.55563 0.15875-0.39688 0.37042h-0.84666l-0.7673 0.07937-1.4288 0.07937-0.79375 0.42333-0.66145 0.47625-0.10584 0.42333 0.15875 0.29104-0.39687 0.13229-0.87313 0.05292 0.0529 1.0319-0.21167 0.50271-0.87312 0.07937-0.47625 0.29104-0.3175 0.55562-0.55563 0.52917 0.26459 0.26458-0.55563 0.50271 0.3175 0.47625-0.26458 0.15875-0.55563 0.07937-0.58208-0.07937-0.60854-0.29104-1.7727-0.58208-1.1377-0.635-1.5875-0.34396-0.87312-0.42333-0.39688-0.34396 0.0794-0.37042 0.74083-0.05292 0.76729 0.18521 0.44979-0.50271 2.9898-0.29104 1.9315-0.05292-0.50271-0.34396-1.8256 0.18521-1.1377-0.05292-0.55562 0.02646-0.55563 0.15875-1.1377 0.13229-1.2171-0.02646-0.76729-0.26458-0.34396-0.52917 0.3175-0.15875 1.0054 0.02646 1.6933-0.23812 0.79375-0.21167 0.82021-0.02646-0.13229-0.21167 0.47625-0.10583 0.635-0.05292 1.4817 0.02646 0.0529-0.15875-0.68792-0.15875-0.23812-0.15875 0.68791-0.47625-0.58208 0.02646-0.79375 0.34396-0.47625 0.13229-1.2171 0.07937-0.44979-0.42333 0.23812-0.3175-0.21167-0.18521-0.34395 0.34396-0.55563 0.07937-0.52917-0.23812-0.5027 0.13229 0.1852 0.26458-0.15875 0.26458 0.52917 0.23812-0.60854 0.15875-0.55563 0.29104-1.0319 0.05292-1.1906 0.02646-1.2171-0.42333-0.58208-0.3175-0.47625-0.3175-0.71438-0.15875-0.44979-0.21167-0.10583-0.29104-0.37042-0.18521-0.18521-0.3175h1.1642l-0.44979-0.47625 0.13229-0.42333-0.89958 0.02646 0.10583 0.23812-0.58208 0.26458-0.3175-0.05292-0.60854-0.50271-0.635-0.635 0.10583-0.34396-0.3175-0.26458 0.39688-0.18521 0.66146 0.23812 0.21167-0.18521 1.0054-0.10583 1.2171 0.29104 0.10583-0.29104 1.1112 0.13229 0.79375-0.15875 1.3229-0.07937 0.52916 0.10583-0.26458 0.29104-1.6669 0.07937-1.0583 0.34396 1.5081-0.05292 0.26458 0.02646 0.15875 0.29104 0.79375 0.13229 0.60854 0.26458 0.21167-0.13229-0.15875-0.58208 1.1642-0.60854 0.55562 0.10583 0.55563 0.23812 1.0583 0.79375 0.60854 0.50271 1.614 0.74083-0.18521-0.39688-1.1112-1.1906-0.23812-0.44979 0.23812-0.44979 0.29104-0.13229-0.10583-0.34396 0.34396-0.13229 0.635 0.07937zm35.639-0.60854-2.1167 0.10583-0.23812-0.07938 4.154-0.37042 0.4498 0.13229zm-31.459-0.50271-0.47625 0.15875-0.84667-0.13229 0.23813-0.18521zm4.9212 0.13229 1.4817 0.02646 0.39687 0.23812 1.4552 0.29104 0.21167-0.39688-0.15875-0.58208 0.50271-0.02646 0.44979-0.15875 0.8202 0.07937 0.0529 0.34396-0.13229 0.37042 0.55562 0.02646 0.74084-0.07937 0.50271-0.29104 0.635 0.02646 0.34395-0.15875 0.37042 0.15875 2.1696 0.18521 0.87313 0.15875h1.3758l0.97896 0.05292 0.74083 0.26458 0.29105 0.44979-0.23813 0.10583-1.7727 0.52917-0.42333 0.18521-0.635 0.60854-1.0848 0.18521-0.92604-0.07938-0.79375 0.18521-0.50271 0.26458-0.39688 0.05292-2.4342-0.10583-0.58209-0.29104 0.3175-0.23812-2.1696 0.07938-2.4342-0.02646-0.26458-0.13229-1.4817-0.13229-1.1112-0.29104 0.29105-0.13229h1.5346l-0.18521-0.39688-0.76729-0.02646-0.47625 0.10583-1.1377 0.05292-1.0583-0.02646-0.50271-0.07937-1.0054-0.26458-0.18521-0.21167 0.74084-0.10583 0.55562-0.18521-1.1906-0.07938-0.50271-0.07937-0.15875-0.23812 1.561-0.05292 1.3229 0.21167-0.18521-0.58208 1.0319 0.29104 0.0529-0.29104-0.52917-0.37042 0.52917-0.02646 1.1906 0.18521z"/>
 </g>
</svg>
