
<svg width="32.491mm" height="23.178mm" version="1.1" viewBox="0 0 32.491 23.178" xmlns="http://www.w3.org/2000/svg">
 <g transform="translate(-80.732 -45.579)">
  <path id="PL" name="Poland" fill="#1fd495" stroke-width=".265" stroke='none' d="m106.93 47.484 0.15875-0.15875 0.60854 0.18521 1.1906 0.58208 0.29104 0.23812 0.21167 0.79375 0.55562 1.3494 0.76729 1.2965 0.44979 0.9525 0.23813 1.0319-0.15875 0.42333-1.0583 0.44979-0.21167 0.13229-0.52917 0.71438v0.3175l0.87313 0.34396 0.47625 0.26458 0.21166 0.26458-0.0529 0.635 0.10583 0.29104-0.21167 0.39688 0.0265 0.34396 0.26459 0.42333 0.3175 0.47625v0.34396l0.71437 0.74083 0.50271 0.74083 0.37042 0.26458-0.3175 0.34396 0.47625 0.68792 0.0265 0.34396-0.3175 0.47625-0.79375 0.13229-1.27 1.2171-0.635 0.71438-0.89958 1.1642-0.15875 0.26458 0.39688 1.0054-0.0265 0.47625 0.50271 0.37042-0.10584 0.23812-0.87312-0.18521-0.23813-0.05292-1.5081-0.50271-0.21167-0.37042-0.26458-0.18521-0.82021-0.26458-0.9525-0.07937-0.84667 0.05292-0.37041 0.39688-0.47625-0.02646-0.635-0.26458-0.79375 0.02646-0.60855 0.26458-0.29104 0.55562-0.44979-0.15875-0.37042 0.10583-0.15875-0.71438-0.37041-0.10583-0.79375-0.79375-0.58208 0.34396-0.26458 0.44979h-0.58208l-0.13229-0.39688-0.34396-0.05292-0.13229-0.42333-0.74083-0.58208-0.13229-0.47625-0.71438-0.21167-0.13229 0.05292-0.92604-0.47625-0.47625 0.26458-0.26458-0.15875-0.71438-0.60854 0.37042-0.13229v-0.42333l-0.9525 0.18521-0.87312-0.50271-0.58208-0.15875h-0.34396l0.44979 0.635-0.92604 0.66146-0.26458-0.10583-0.39688-0.50271-0.52917-0.47625-0.42333-0.23812 0.42333-0.3175 0.18521-0.29104-0.47625-0.3175-0.84667 0.18521-0.21167-0.23812-0.71438-0.29104-1.2171-0.29104-0.26458-0.29104-0.07937-0.29104-0.87312-0.21167 0.02646 0.50271-0.55562 0.10583 0.42333-0.9525 0.10583-0.60854-0.42333-0.84667-0.58208-0.23812v-0.42334l-0.50271-0.82021 0.21167-0.29104 0.18521-0.68792-0.21167-0.50271-0.52917-0.60854 0.15875-0.68792-0.37042-0.44979-0.87312-0.55562-0.42333-0.37042 0.18521-0.42333 0.50271-0.47625 0.07937-0.71438-0.47625-1.0848-0.18521-0.68792 0.74083 0.23812 0.18521-0.13229-0.02646-0.47625-1.0848-0.18521-0.02646-0.3175 0.52917 0.10583 1.0054-0.37042 1.7198-0.47625 1.8256-0.44979 0.87312-0.13229 0.52917-0.58208 0.50271-0.44979 1.0054-0.18521 0.34396-0.21167 0.74083-0.3175 1.7462-0.3175 1.4552-0.10583 1.4288 0.60854-0.23812 0.07938-0.79375-0.3175 0.58208 0.92604 0.29104 0.3175 0.52917 0.23812 0.44979 0.07938 1.2965-0.13229 0.58208-0.29104 0.13229 0.02646 1.7462 0.10583 6.059 0.23812z"/>
 </g>
</svg>
