<svg width="33.788mm" height="51.117mm" version="1.1" viewBox="0 0 33.788 51.117" xmlns="http://www.w3.org/2000/svg">
 <g transform="translate(-106.41 -93.856)">
  <path id="SE" name="Sweden" fill="#1fd495" stroke-width=".265" stroke='none' d="m123.53 141.3-0.39687-0.0794-0.0794-1.0054 0.52917-1.2171 0.26458-0.0794 0.71438-1.7198 0.13229 0.52917-0.39688 0.84667-0.0794 0.58208-0.15875 0.13229zm6.9321-6.006-0.34395 0.37041-0.37042 0.13229 0.0265 0.87313 0.39687 0.3175-0.34396 0.13229-0.1852 0.47625-0.47625 0.15875-0.39688 0.42333-0.0794 0.42334-0.55563 0.23812 0.3175-0.635-0.23812-0.18521-0.37042-0.55562 0.10583-0.23813-0.15875-0.84666 0.71438-0.76729 0.34396-0.29105 0.87312-0.26458h0.34396zm9.7367-29.898-0.71437 0.0794-0.58209-0.15875-0.26458 0.0794-1.0054 0.0794-0.29104 0.18521-0.55562-0.18521-0.52917-0.3175-0.52917 0.29105-0.42333-0.26459-0.26458 0.50271 0.0265 0.47625-0.47625-0.0529 0.0794 0.29105-0.52917 0.39687-0.84666 0.0529 0.1852 0.39687-0.23812 0.18521 0.26458 0.44979-0.34396 0.39688-0.55562 0.50271-0.13229 0.26458 0.44979 0.29104 0.42333 0.66146 0.42334 0.29104-0.10584 0.3175-0.55562 0.29104-0.58209 0.44979-0.52916 1.1377-0.82021 0.34396-0.635 0.42333-0.79375 0.18521-0.635 0.58209-0.47625-0.21167-0.39688 0.13229-0.26458 0.47625-0.50271 0.39688-0.635-0.0529 0.0529 0.21167-0.60854 0.0794-0.26459 1.0583-0.58208 0.15875-0.18521 0.21167-0.23812-0.15875-0.55563 0.0265 0.42334 0.74083-0.4498 0.47625h-0.3175l-0.39687 0.18521-0.50271-0.21167-0.0529 0.3175 0.21167 0.34396 0.34396 0.26459-0.0265 0.34395-0.23812 1.1377 0.1852 0.47625-0.55562 0.3175-0.21167 0.29104 0.15875 0.4498-0.0265 0.29104 0.18521 0.50271 0.21167 1.1112 0.29104 0.52916-0.0265 0.42334 0.34396 0.23812 0.55563-0.0265 0.37041 0.42334 0.82021-0.21167 0.21167 0.29104 0.76729 0.58208 0.44979 0.0794 0.50271 0.3175v0.39687l0.76729 0.26459 0.50271 0.52916 0.21167 0.42334-0.0265 0.26458-0.68792 0.39688-0.34396 0.34395-1.0054 0.55563-0.15875-0.0265-0.55563 0.26458 0.52917 0.15875 0.37041-0.1852 0.68792-0.15875 0.37042 0.3175-0.58209 0.13229-0.0794 0.42333-0.21167 0.26458-0.52916 0.18521-0.74084 0.39688-1.0583 0.37041-0.29104 0.3175-0.68792 0.26459-0.34396 0.21166h-1.0054l-0.97896-0.0265 0.26458 0.23812 0.23813-0.0529 0.9525 0.10584 0.44979 0.34396-0.79375 0.23812 0.44979 0.84667-0.18521 0.21166 0.10583 0.92605-0.29104 0.0265-0.0794 0.37042 0.15875 0.66146 0.26458 0.55562-0.0265 0.26459-0.39687 0.635 0.23812 0.76729-0.39687 1.4023-0.50271 0.82021-0.34396 1.0848-0.47625 0.37042-0.635-0.23813-0.89958 0.13229-0.84667-0.0794-0.79375 0.0529-0.21167 0.10584 0.18521 0.37041-0.60854-0.0529-0.44979 0.29104-0.52917 0.55562v0.39688l0.50271 0.79375-0.44979 0.52917h-0.29104l-0.84667-0.1323-1.4552 0.3175-1.3494-0.26458 0.13229-0.26458 0.0529-0.82021-0.15875-0.44979-0.34396-0.29104-0.82021-1.0054-0.3175-0.60854 0.635 0.23812 0.26458-0.13229-0.47625-0.68792 0.58209-0.0264 0.1852-0.26459-0.15875-0.39687-0.5027-0.15875-0.50271-0.635-0.47625-0.3175-0.92604-1.2435-0.34396-0.84667-0.29104 0.0794-0.3175-0.97895-0.4498-0.15875-0.15875-0.97896-0.47625-0.10583-0.34395-0.4498-0.10584-0.84666-0.3175-0.15875-0.21166-0.37042-0.21167-0.79375-0.0794-0.71437-0.23812-0.47625 0.13229-0.3175 0.29104-0.0529 0.29104 0.21167 0.26459 0.47625 0.50271-0.0529 0.1852-0.37042 0.15875-1.0319-0.42333-1.1642 0.39688-0.39687 0.23812-0.635 0.68792-0.18521 0.34396-0.21167 0.5027-0.52917 0.0265-0.74083 0.15875-0.55562-0.13229-0.37042-0.82021-1.2965-0.0794-0.42333 0.47625-0.15875h0.635l0.34396-0.66146 0.10583-0.50271-0.89958-0.71437-0.3175-0.10584-1.0054-0.55562 0.23812-1.6933v-0.42333l-0.66145-1.1642 0.0265-0.47625-0.15875-0.74083 0.29105-0.29104-0.71438-1.0848 0.52917-0.74084-0.13229-0.39687 0.3175-0.26458 0.92604-1.0054 0.87312-0.39688 0.87313-0.10583 1.8785 0.23813 0.44979-0.58209-0.0265-0.3175-0.29104-0.76729-1.2435-0.42333 1.1642-1.3229 0.87312-1.3229 0.0265-1.2435 0.15875-0.71437-0.37042-1.0319 1.0054-0.10583 0.635-0.13229 0.87312-0.39688-0.26458-0.66146 0.34396-0.23812 0.79375-0.76729 0.87312-0.76729 0.39688-0.26459 0.0529-0.37041-0.26459-0.34396-0.71437-0.60854 0.13229-0.29104 0.71437-0.15875 0.29105-0.29104 0.39687-0.92604 0.97896-0.50271 0.39687-0.23812 1.6669 0.47625 0.55562-0.82021-0.21166-0.9525v-0.21167l0.55562-0.13229 1.0848 0.23812 0.7673 0.02646 2.2754 0.44979 0.26459 0.02646 0.66145-0.42333-0.76729-0.23812 0.42334-0.23812 0.37041-0.50271-0.0265-0.52917-0.68791-0.42333 1.3494-0.05292 0.76729 0.21167 0.10584 0.23812 0.76729 0.29104 1.27 0.60854 1.1112 0.47625 2.196 0.44979 0.92604 0.47625 0.3175 0.42333 0.37042 0.02646 0.50271 0.39688 0.47625 0.23812-0.29104 0.26458 0.10583 0.635 0.18521 0.37042-0.0794 0.50271 0.74084 0.10583 0.15875 0.34396-0.26459 0.21166-0.0265 0.29104 0.21167 0.42334 0.87313 0.68791 0.15875 0.23813-0.18521 0.37041 0.0265 0.47625-0.39688 0.34396v0.34396l0.34396 0.68792 0.47625 0.15875 0.50271 0.58208z"/>
 </g>
</svg>
