<?xml version="1.0" encoding="UTF-8"?>
<!-- Created with Inkscape (http://www.inkscape.org/) -->
<svg width="10.107mm" height="5.8473mm" version="1.1" viewBox="0 0 10.107 5.8473" xmlns="http://www.w3.org/2000/svg">
 <g transform="translate(-95.568 -111.17)">
  <path id="SI" d="m105.68 112.66-0.66146-0.15875-0.23813 0.21167v0.44979h-0.52916l-0.18521 0.26458-1.1642 0.44979-0.10583 0.37042 0.23812 0.23813 0.0529 0.58208-0.10583 0.29104-0.55563 0.15875-0.55562 0.26458 0.26458 0.29105-0.18521 0.1852 0.21167 0.60855-0.3175 0.10583-0.42334-0.0529-0.52916-0.18521-0.34396 0.1323-0.39688-0.18521-0.68791-0.55563-0.3175 0.58209-0.15875 0.0794-0.9525 0.0265-0.29104-0.13229-0.37042 0.34396-0.87312-0.21167-0.13229-0.15875 0.44979-0.29104 0.39688-0.0265-0.05292-0.34396-0.39688-0.34396-0.50271-0.29104 0.10583-0.52917-0.34396-0.0529-0.07937-0.26459 0.42333-0.55562-0.60854-0.18521-0.18521-0.37042 0.87312-0.60854 0.05292-0.23812 1.3229 0.23812 1.3229 0.18521 0.79375-0.3175 0.26459-0.34396 0.50271-0.18521 0.68792-0.0529 0.74083 0.0529 0.60854-0.29104 0.42333-0.0529 0.635 0.13229 0.0265-0.50271 0.34396-0.23813 0.635 0.0265 0.37042 0.87313z" stroke-width=".26458" name="Slovenia"/>
 </g>
</svg>
