<svg width="45.297mm" height="31.935mm" version="1.1" viewBox="0 0 45.297 31.935" xmlns="http://www.w3.org/2000/svg">
 <g transform="translate(-100.26 -71.658)">
  <path id="ES" name="Spain" fill=" #1fd495" stroke-width=".265" stroke='none' d="m135.87 91.607-0.10584 0.26458-0.52916-0.10583v-0.39688l0.3175-0.42333 0.71437-0.18521 0.21167 0.34396zm5.7415-3.5983 0.3175 0.13229 0.34395-0.13229 0.37042 0.10583 0.0529 0.26458-0.58209 0.92604-0.15875 0.37042-0.55562 0.34396-1.0583-0.44979-0.0794-0.42333-0.37042-0.18521-0.44979 0.34396-0.37041-0.26458-0.0794-0.3175 1.4023-0.97896 0.39688-0.23812 0.84666-0.23812 0.1323 0.3175zm3.8894-0.21167-0.0794 0.05292-1.0319-0.50271-0.42333-0.10583 0.0265-0.37042 0.68791-0.05292 0.55563 0.18521 0.3175 0.47625zm-20.479-14.684 0.13229 0.34396 1.1377 0.34396-0.0794 0.84667 0.47625-0.10583 1.1642 0.44979 0.58209 0.05292 0.58208 0.55562 0.9525-0.10583 0.84667 0.55562 0.8202-0.10583 0.18521 0.10583h1.2435l0.21167-0.635 1.0583 0.29104 0.66146 0.26458 0.44979 0.07937 0.29105 0.39688v0.55562l0.1852 0.10583 0.74084-0.29104 0.74083 0.3175 0.34396 0.3175 0.55562-0.29104 1.2436 0.3175 0.3175-0.21167 1.0054-0.29104 0.82021 0.15875 0.3175 0.58208-0.47625 0.13229-0.0529 0.37042 0.3175 0.34396 0.0265 0.55562-0.79375 0.74083-2.3019 1.2435-0.76729 0.71438-1.7462 0.39688-1.1906 0.39688-0.58208 0.13229-1.0848 1.0054 0.29104 0.07937 0.3175 0.3175-0.10584 0.15875-0.66145 0.29104h-0.23813l-0.76729 1.2171-0.68792 0.87312-0.39687 0.39688-0.39688 0.55562-0.84666 1.4817-0.0265 0.42333 0.42333 1.4552 0.58208 0.71438 0.635 0.29104 0.15875 0.26458-0.21166 0.26458-0.635 0.44979-1.1377 0.60854-0.47625 0.50271-0.0794 0.47625-0.34395 0.21167-0.1323 0.66146-0.47625 1.1642 0.34396 0.3175-0.34396 0.21167-1.7198 0.07937-1.0848 0.74083-0.52917 0.635-0.5027 1.1906-0.58209 0.68792-0.26458 0.13229-0.39688-0.3175-0.5027-0.0265-0.50271 0.0794-0.26459 0.26458-0.39687 0.1323-0.39688-0.1323-1.2171-0.0529-0.60854 0.21166-0.50271-0.13229-0.84667-0.0794-1.8521 0.15875-1.0583 0.89958h-0.89959l-0.8202 0.3175-0.55563 0.79375-0.13229 0.42333-0.26458-0.0794-0.0794 0.3175-0.55562 0.21167-0.635-0.26459-0.52917-0.39687-0.26458-0.0265-0.42334-0.58208-0.3175-0.82021v-0.29104l-0.39687-0.15875-0.0794-0.37042 0.0529-0.42333-0.3175-0.52917-1.3229-0.97896-0.97896-0.07937-0.79375 0.13229-0.29104-1.6933 0.21167-0.58208 0.92604-1.1377 0.55563-0.15875 0.1852-0.635-0.44979 0.05292-0.79375-1.1377 0.23813-1.0583 0.84666-0.79375 0.15875-0.635-0.13229-0.21167-0.44979-0.10583-0.42333-0.84667-0.0794-0.50271-0.37041-0.3175-0.29105-0.50271 0.29105-0.07938h1.1377l0.26459-0.13229 0.44979-0.92604v-0.50271l-0.37042-0.34396 0.0529-0.26458 0.71437-0.55562-0.10583-0.29104 0.10583-1.0054-0.10583-0.92604-0.21167-0.52917 0.52917-0.42333 0.29104-0.42333 0.42334-0.37042 0.55562-0.29104 0.66146-0.66146-0.0794-0.29104-0.5027-0.23812-0.50271-0.05292-0.0265-0.82021-0.18521-0.29104-1.3758-0.02646-0.39688-0.13229-0.21166 0.37042-0.66146 0.23812h-0.37042l-0.58208-0.21167-0.76729 0.02646-0.79375 0.29104-0.23813-0.34396 0.34396-0.50271-0.26458-0.47625-1.0848 0.26458-0.5027 0.23812-0.3175 0.29104-0.34396-0.02646v-0.66134l0.68791-0.68792-0.42333-0.05292 0.3175-0.50271-0.26458-0.26458 0.0265-0.68792-0.60855 0.23812-0.13229-0.3175 0.37042-0.58208-0.37042-0.05292-0.60854-0.66146 0.21167-0.82021 0.52916-0.26458 0.50271-0.39688 0.68792 0.07937 0.44979-0.07937 0.9525-0.42333-0.10583-0.39688 0.10583-0.18521 0.84667-0.44979 0.52916-0.05292 0.50271-0.23812 0.34396 0.13229 0.29104-0.02646 0.34396 0.15875 0.44979 0.42333 0.66146 0.15875 0.52917-0.13229 0.9525-0.02646 0.44979 0.05292 0.84667-0.07937 0.47625 0.02646 0.76729-0.21167 0.60854 0.26458 1.1642 0.10583 0.68791 0.21167 1.905 0.37042h0.71438l0.97896-0.21167 0.42333-0.13229 0.39687 0.07937 0.55563-0.15875 0.60854 0.26458 1.2435 0.34396 0.55563-0.34396 0.89958 0.15875 0.87313 0.34396 0.47625 0.02646 0.68791-0.07937z"/>
 </g>
</svg>
