<svg width="30.454mm" height="41.566mm" version="1.1" viewBox="0 0 30.454 41.566" xmlns="http://www.w3.org/2000/svg">
 <g transform="translate(-63.529 -7.6746)">
  <path id="GB" name="United-Kingdom" fill="#1fd495" stroke-width=".265" stroke='none' d="m85.145 46.568-0.42333 0.34396-0.34396 0.05292-0.66146-0.3175v-0.13229l0.66146-0.29104 0.52917 0.15875zm-9.6573-10.504 0.34396 0.23812-0.89958 0.50271-0.3175-0.15875-0.23812-0.3175-0.02646-0.50271 0.3175-0.13229h0.47625zm-6.1648-3.0162-0.55562 0.10583h-0.76729l0.02646-0.39688-0.37042-0.13229-0.47625-0.71438-0.34396-0.13229-0.50271 0.42333 0.13229 0.23812-0.635 0.47625-0.76729-0.07938-0.21167-0.18521-0.55562-0.10583-0.05292-0.26458-0.71438-0.52917 0.26458-0.37042 0.76729-0.23812-0.26458-0.37042 0.05292-0.21167 0.42333 0.02646 0.58208-0.21167 0.3175-0.42333 0.26458-0.60854 0.50271-0.23812 0.34396 0.15875 0.50271-0.52917 0.74083-0.02646 0.71438-0.18521 1.0319 0.07937 0.29104 0.29104 0.13229 0.44979 0.34396 0.44979 0.44979 0.37042v0.23812l-0.52917 0.29104 0.92604 0.07937 0.3175 0.66146-0.55562 0.07938-0.02646 0.37042 0.29104 0.05292-0.15875 0.37042-0.68792 0.15875-0.37042 0.58208-0.26458 0.13229zm3.6248-5.3446-0.68792-0.13229-0.15875-0.52917 0.23812-0.37042 0.47625 0.18521 0.15875 0.34396zm-3.0427-1.8785 0.18521 0.89958-0.635 0.34396-0.21167-0.635-0.37042 0.26458 0.05292-0.50271 0.39688-0.07937zm0.44979 0.44979-0.29104-0.3175 0.42333-0.58208 0.44979-0.26458-0.02646 0.42333zm0.66146-2.0638-1.2171 0.21167 0.15875-0.79375-0.50271-0.23812 0.07937-0.23812 0.55562-0.13229 0.44979 0.44979 0.55562 0.15875zm-4.2862-3.0162-0.39688-0.05292-0.10583-0.37042 0.05292-0.60854 0.42333 0.05292zm3.3867-1.5081-0.02646 0.74083 0.76729 0.21167 0.52917-0.02646 0.10583 0.15875-0.87312 0.71438-0.18521-0.02646-0.05292-0.58208-0.37042 0.07937-0.50271-0.07937-0.3175-0.50271-0.71438-0.13229-0.23812-0.29104 0.37042-0.15875 0.07937-0.3175 0.74083-0.15875 0.39688-0.18521 0.23812 0.26458zm-3.1485-0.68792 0.3175 0.23812-0.29104 0.34396h-0.39688l-0.58208-0.26458 0.05292-0.13229zm3.1221-2.6194-0.42333 0.68792-0.26458 0.18521-0.05292 0.44979-0.79375 0.42333-0.84667 0.635-0.37042-0.26458 0.68792-0.44979-0.55562-0.26458-0.05292-0.68792 0.21167-0.18521 0.37042 0.18521 0.50271-0.07937-0.18521-0.3175 1.6669-0.84667zm9.2075-0.58208v0.3175l-0.34396 0.42333-0.58208 0.3175-1.1112 0.74083-0.66146 0.34396-0.13229 0.42333 0.37042 0.02646 0.05292 0.21167-0.58208 0.42333-0.15875 0.39688 0.79375-0.10583 1.4023-0.39688 0.9525 0.13229 0.68792-0.07938 1.8256 0.05292 0.50271-0.07937 0.60854 0.34396 0.26458 0.44979-0.74083 0.89958-0.21167 0.60854-0.52917 0.92604-0.50271 0.52917-0.52917 0.66146-0.55562 0.29104-0.82021 0.13229 1.1906 0.50271-0.37042 0.47625-0.635 0.02646-0.60854 0.44979-0.55562 0.18521 0.9525 0.29104 0.635-0.26458 0.71438-0.02646 1.3758 0.50271 0.9525 0.89958 0.52917 0.39688 0.13229 0.29104 0.55562 1.8256 0.39688 1.0054 0.42333 0.47625 1.1906 0.42333 0.29104 0.15875 0.89958 0.87312 0.89958 0.635-0.37042 0.39688 0.10583 0.3175 0.55562 0.76729 0.07937 0.42333-0.34396-0.02646-0.60854-0.37042-0.07937 0.18521 1.3229 0.87312 0.42333 0.52917 0.26458 0.71438-0.15875 0.29104-0.79375 0.71438 0.74083 0.37042 0.3175-0.05292 0.52917-0.55562 0.44979-0.05292 1.1112 0.07937 1.0054 0.26458 0.87312 0.55562 0.18521 0.29104 0.10583 0.82021-0.58208 1.5346-0.74083 0.50271-0.13229 0.44979-0.55562 0.23812-0.44979-0.07937-0.635 0.3175 0.44979 0.15875v0.44979l-0.29104 0.15875-0.66146 0.05292 0.29104 0.52917 0.66146 0.10583 1.1377-0.05292 0.50271 0.05292-0.05292 0.71438-0.10583 0.10583-1.0054 0.44979-0.26458 0.47625-0.58208-0.02646-0.29104 0.18521-1.5081 0.50271-1.2965-0.21167-0.76729 0.02646-1.0583 0.15875-1.1112-0.3175-0.47625-0.05292-0.74083 0.44979-1.1112 0.13229-0.52917-0.05292 0.23812 0.39688-0.23812 0.10583-1.0054-0.13229-0.26458 0.13229-0.37042-0.05292-0.71438-0.37042-0.68792-0.02646-1.2965 0.3175-0.26458 0.34396-0.34396 0.92604-0.29104 0.3175-0.37042 0.05292-1.1906-0.66146-0.39688 0.13229-0.66146 0.07937-0.71438 0.18521-1.0319 0.635-0.23812 0.39688-0.34396 0.05292-0.29104-0.23812-0.37042-0.07937-0.60854 0.21167-0.07937-0.34396 0.26458-0.26458 0.74083-0.18521 0.66146-0.50271 0.58208-0.60854 1.2171-1.0054 0.21167-0.82021 0.71438-0.18521 0.37042-0.66146 1.0848-0.15875h0.74083l0.74083 0.13229 0.76729-0.02646 0.29104-0.18521 0.50271-0.635 0.9525-0.79375-1.2435 0.26458-1.0054 0.60854-0.84667-0.10583-0.60854-0.50271-0.55562-0.21167-0.55562 0.10583-0.18521-0.23812-0.635-0.44979h-0.68792l-0.9525 0.44979-0.68792-0.3175-0.23812-0.60854 0.07937-0.37042 0.29104-0.18521 0.66146-0.15875 1.0054-0.44979 0.58208-0.18521 0.74083-0.50271 0.3175-0.60854-0.07937-0.52917 0.13229-0.37042-0.23812-0.44979 0.07937-0.39688-0.79375 0.07937-0.71437 0.3175-0.18521-0.29104 0.74083-0.47625 0.26458-0.37042 0.68792-0.44979 0.9525-0.34396 0.50271 0.02646 0.97896-0.18521 0.71438 0.34396-0.21167-0.55562 0.3175-0.10583 0.02646-0.635 0.42333-0.58208-0.3175-0.15875 0.02646-0.52917 0.39688-0.21167 0.18521-0.68792-0.44979-0.13229-0.55562 0.15875-0.44979-0.39688-0.74083-0.9525-0.07937-0.37042 0.42333-0.82021 0.60854-0.52917-0.50271-0.21167-0.37042 0.05292-0.71438 0.3175-0.52917 0.34396h-0.55562l-0.21167-0.23812-0.29104 0.02646-0.66146 0.29104-0.92604-0.34396-0.29104 0.60854-0.68792-0.66146-0.07937-0.50271h0.34396l0.3175-0.635 0.76729-1.0583 0.15875-0.3175-0.13229-0.37042-0.50271-0.39688 0.07937-0.68792 0.21167-0.26458 0.39688-0.10583-0.50271-0.3175-0.76729 0.23812-0.47625 0.23812 0.07937-0.52917-0.15875-0.10583-0.39688 0.37042 0.02646 0.87312-0.55562 1.5081-0.29104 0.23812-0.37042-0.13229 0.29104-1.0319 0.37042-0.66146-0.15875-0.07937 0.07937-0.9525 0.26458-0.76729 0.44979-1.0054 0.58208-0.92604-1.0848 0.71438-0.26458 0.13229-0.635-0.10583-0.21167-0.18521-0.26458-0.60854 0.47625-0.05292 0.44979-0.29104-0.39688-0.18521 0.39688-0.23812 0.44979-0.55562 0.10583-0.50271-0.26458-0.39688-0.42333-0.15875-0.05292-0.23812 0.44979-0.50271-0.18521-0.39688 0.42333-0.82021 0.79375 0.02646 0.50271-0.10583-0.60854-0.52917 0.18521-0.76729 0.97896-0.07937-0.21167-0.47625 0.07937-0.52917 0.42333-0.23812 0.34396 0.05292 0.26458 0.23812 0.68792-0.23812 0.15875 0.21167 0.74083-0.15875 0.97896-0.07938 1.1906-0.15875 0.58208-0.10583 0.60854 0.05292zm-0.15875-1.0583-0.34396 0.02646-0.34396-0.37042 0.39688-0.07937zm0.34396-0.89958 0.71438 0.15875-0.15875 0.37042-0.37042-0.18521-0.52917 0.07938-0.50271-0.26458 0.10583-0.55562 0.44979-0.02646 0.3175 0.13229zm0.97896-0.60854-0.26458 0.07938-0.10583-0.3175-0.44979-0.15875 0.10583-0.21167zm4.2598-5.1594 0.42333 0.47625 0.26458 0.13229-0.34396 1.0054-0.05292 0.42333-0.26458 0.44979-0.21166-0.10583 0.23812-0.76729-0.13229-0.29104-0.44979 0.079375-0.10583-0.23812 0.42333-0.37042-0.21167-0.52917-0.29104-0.052917 0.39688-0.42333zm0.76729 0.10583-0.37042-0.34396 0.34396-0.15875z"/>
 </g>
</svg>
