<svg width="13.811mm" height="15.346mm" version="1.1" viewBox="0 0 13.811 15.346" xmlns="http://www.w3.org/2000/svg">
 <g transform="translate(-125.65 -73.683)">
  <path id="IE" name="Ireland" fill="#1fd495" stroke-width=".265" stroke='none' d="m139.04 78.658 0.18521 0.29104-0.58209 0.10583 0.39688 1.3758 0.15875 0.23812v1.0848l0.23812 0.84667 0.0265 0.66146-0.34396 0.47625-0.23812 0.55562-0.0529 0.47625-0.42333 0.55562-0.39688 0.23812 0.42334 0.39688-0.74084 0.21167-0.68791-0.07937-0.34396 0.21167-1.0319 0.05292-0.97895 0.18521-0.4498 0.47625-0.66145 0.18521-0.26459 0.26458-0.60854 0.21167-0.44979-0.3175-0.26458 0.05292 0.0529 0.55562-0.76729 0.34396-0.47625 0.07937-0.26458 0.18521-1.5346 0.37042-0.5027-0.13229-0.87313 0.21167-0.3175-0.02646 0.42333-0.47625 0.42334-0.34396-1.0054 0.15875-0.37042 0.13229-0.15875-0.15875 0.84667-0.50271-0.87312 0.02646-0.79375-0.10583-0.10584-0.26458 0.76729-0.60854 0.635-0.23812-0.0264-0.23812-1.3494 0.02646 0.13229-0.29104 0.44979-0.26458 0.47625-0.02646 0.39688 0.15875 0.29104-0.21167-0.15875-0.44979 1.0319-0.60854 0.79375-0.07937 0.87312-0.18521 0.87313-0.21167-0.635-0.3175-0.60855 0.47625-0.68791 0.07937-0.50271-0.13229h-0.55563l0.71438-0.52917 0.42333-0.44979-0.21166-0.18521 0.52916-0.60854 0.9525-0.26458-0.42333-0.34396-1.0319 0.05292-0.37041-0.34396-0.68792 0.02646 0.10583-0.3175-0.92604-0.05292 0.13229-0.26458-0.15875-0.29104 0.74084-0.15875-0.0529-0.52917 0.50271-0.21167 0.52917-0.10583 0.0264-0.29104-0.52916-0.05292-0.52917 0.10583 0.21167-0.55562-0.21167-0.26458-0.10583-0.44979-0.23813-0.26458 0.74084-0.05292 0.3175-0.13229 1.2435 0.02646 0.50271 0.34396 0.44979-0.3175 1.27 0.23812 0.15875-0.68792 1.0054-0.39688 0.3175-0.52917-0.97895 0.10583-0.9525-0.26458 0.1852-0.21167 0.55563-0.18521 0.50271-0.42333-0.0794-0.29104 0.44979-0.71438 0.82021-0.21167h0.635l0.42334-0.23812 0.3175 0.52917-0.26459 0.26458 0.15875 0.23812 0.3175-0.21167-0.13229-0.55562 0.23813-0.34396 0.5027-0.07937 0.15875-0.21167 0.84667 0.44979-0.66146 0.39688-0.13229 0.18521-0.50271 0.23812-0.26458 0.60854-0.3175 0.42333-0.58208 0.21167-0.42334-0.02646-0.0529 0.21167 0.26458 0.37042-0.76729 0.23812-0.26459 0.37042 0.71438 0.52917 0.0529 0.26458 0.55562 0.10583 0.21167 0.18521 0.76729 0.07937 0.635-0.47625-0.13229-0.23812 0.50271-0.42333 0.34395 0.13229 0.47625 0.71438 0.37042 0.13229-0.0265 0.39688h0.76729z"/>
 </g>
</svg>
