<svg width="11.377mm" height="21.167mm" version="1.1" viewBox="0 0 11.377 21.167" xmlns="http://www.w3.org/2000/svg">
 <g transform="translate(-64.202 -20.516)">
  <path id='PT' name="Portugal" fill="#1fd495" stroke-width=".265" stroke='none' d="m71.055 40.968-0.3175 0.05292-1.1906 0.66146h-0.34396l-0.66146-0.29104-1.1906-0.10583-0.39688-0.07937-0.47625 0.18521h-0.39688l-0.29104 0.26458-0.21167-0.07937 0.26458-0.55562 0.42333-1.0848v-0.68792l0.10583-0.58208-0.07937-0.55562-0.18521-0.37042 0.29104-0.92604v-0.47625l-0.23812-0.60854 0.74083 0.07937-0.44979-0.37042h-0.39688l-0.60854 0.23812-0.39688 0.02646 0.02646-0.37042-0.13229-0.47625 0.52917-0.15875 0.42333-0.44979-0.07938-0.42333-0.3175 0.29104-0.15875 0.37042-0.74083 0.18521-0.39688-0.13229v-0.50271l0.15875-0.44979 0.10583-0.60854 0.21167-0.58208-0.05292-0.37042 0.42333-0.34396 0.37042-0.50271 1.1377-2.3548-0.15875-0.26458 0.44979-1.7462 0.3175-0.60854 0.15875-1.1377-0.05292-0.52917-0.18521-0.52917-0.18521-1.1377v-0.37042l-0.23812-0.47625 0.02646-0.26458 0.37042-0.44979 0.3175-0.29104 0.50271-0.23812 1.0848-0.26458 0.26458 0.47625-0.34396 0.50271 0.23812 0.34396 0.79375-0.29104 0.76729-0.02646 0.58208 0.21167h0.37042l0.66146-0.23812 0.21167-0.37042 0.39688 0.13229 1.3758 0.02646 0.18521 0.29104 0.02646 0.82021 0.50271 0.05292 0.50271 0.23812 0.07937 0.29104-0.66146 0.66146-0.55562 0.29104-0.42333 0.37042-0.29104 0.42333-0.52917 0.42333 0.21167 0.52917 0.10583 0.92604-0.10583 1.0054 0.10583 0.29104-0.71438 0.55562-0.05292 0.26458 0.37042 0.34396v0.50271l-0.44979 0.92604-0.26458 0.13229h-1.1377l-0.29104 0.07937 0.29104 0.50271 0.37042 0.3175 0.07937 0.50271 0.42333 0.84667 0.44979 0.10583 0.13229 0.21167-0.15875 0.635-0.84667 0.79375-0.23812 1.0583 0.79375 1.1377 0.44979-0.05292-0.18521 0.635-0.55562 0.15875-0.92604 1.1377-0.21167 0.58208z"/>
 </g>
</svg>
